<svg width="1259" height="88" viewBox="0 0 1259 88" fill="none" xmlns="http://www.w3.org/2000/svg">
<path d="M70.472 7.27999V74H59.528V28.304L39.176 74H31.592L11.144 28.304V74H0.2V7.27999H12.008L35.432 59.6L58.76 7.27999H70.472ZM133.336 46.256C133.336 48.24 133.208 50.032 132.952 51.632H92.5363C92.8563 55.856 94.4243 59.248 97.2403 61.808C100.056 64.368 103.512 65.648 107.608 65.648C113.496 65.648 117.656 63.184 120.088 58.256H131.896C130.296 63.12 127.384 67.12 123.16 70.256C119 73.328 113.816 74.864 107.608 74.864C102.552 74.864 98.0083 73.744 93.9763 71.504C90.0083 69.2 86.8723 66 84.5683 61.904C82.3283 57.744 81.2083 52.944 81.2083 47.504C81.2083 42.064 82.2963 37.296 84.4723 33.2C86.7123 29.04 89.8163 25.84 93.7843 23.6C97.8163 21.36 102.424 20.24 107.608 20.24C112.6 20.24 117.048 21.328 120.952 23.504C124.856 25.68 127.896 28.752 130.072 32.72C132.248 36.624 133.336 41.136 133.336 46.256ZM121.912 42.8C121.848 38.768 120.408 35.536 117.592 33.104C114.776 30.672 111.288 29.456 107.128 29.456C103.352 29.456 100.12 30.672 97.4323 33.104C94.7443 35.472 93.1443 38.704 92.6323 42.8H121.912ZM155.05 28.784C156.65 26.096 158.762 24.016 161.386 22.544C164.074 21.008 167.242 20.24 170.89 20.24V31.568H168.106C163.818 31.568 160.554 32.656 158.314 34.832C156.138 37.008 155.05 40.784 155.05 46.16V74H144.106V21.104H155.05V28.784ZM208.31 20.24C212.342 20.24 215.926 21.104 219.062 22.832C222.262 24.56 224.758 27.12 226.55 30.512C228.406 33.904 229.334 38 229.334 42.8V74H218.486V44.432C218.486 39.696 217.302 36.08 214.934 33.584C212.566 31.024 209.334 29.744 205.238 29.744C201.142 29.744 197.878 31.024 195.446 33.584C193.078 36.08 191.894 39.696 191.894 44.432V74H180.95V2.96H191.894V27.248C193.75 25.008 196.086 23.28 198.902 22.064C201.782 20.848 204.918 20.24 208.31 20.24ZM239.646 47.312C239.646 42 240.734 37.296 242.91 33.2C245.15 29.104 248.158 25.936 251.934 23.696C255.774 21.392 259.998 20.24 264.606 20.24C268.766 20.24 272.382 21.072 275.454 22.736C278.59 24.336 281.086 26.352 282.942 28.784V21.104H293.982V74H282.942V66.128C281.086 68.624 278.558 70.704 275.358 72.368C272.158 74.032 268.51 74.864 264.414 74.864C259.87 74.864 255.71 73.712 251.934 71.408C248.158 69.04 245.15 65.776 242.91 61.616C240.734 57.392 239.646 52.624 239.646 47.312ZM282.942 47.504C282.942 43.856 282.174 40.688 280.638 38C279.166 35.312 277.214 33.264 274.782 31.856C272.35 30.448 269.726 29.744 266.91 29.744C264.094 29.744 261.47 30.448 259.038 31.856C256.606 33.2 254.622 35.216 253.086 37.904C251.614 40.528 250.878 43.664 250.878 47.312C250.878 50.96 251.614 54.16 253.086 56.912C254.622 59.664 256.606 61.776 259.038 63.248C261.534 64.656 264.158 65.36 266.91 65.36C269.726 65.36 272.35 64.656 274.782 63.248C277.214 61.84 279.166 59.792 280.638 57.104C282.174 54.352 282.942 51.152 282.942 47.504ZM319.3 28.976C321.156 26.416 323.684 24.336 326.884 22.736C330.148 21.072 333.764 20.24 337.732 20.24C342.404 20.24 346.628 21.36 350.404 23.6C354.18 25.84 357.156 29.04 359.332 33.2C361.508 37.296 362.596 42 362.596 47.312C362.596 52.624 361.508 57.392 359.332 61.616C357.156 65.776 354.148 69.04 350.308 71.408C346.532 73.712 342.34 74.864 337.732 74.864C333.636 74.864 329.988 74.064 326.788 72.464C323.652 70.864 321.156 68.816 319.3 66.32V74H308.356V2.96H319.3V28.976ZM351.46 47.312C351.46 43.664 350.692 40.528 349.156 37.904C347.684 35.216 345.7 33.2 343.204 31.856C340.772 30.448 338.148 29.744 335.332 29.744C332.58 29.744 329.956 30.448 327.46 31.856C325.028 33.264 323.044 35.312 321.508 38C320.036 40.688 319.3 43.856 319.3 47.504C319.3 51.152 320.036 54.352 321.508 57.104C323.044 59.792 325.028 61.84 327.46 63.248C329.956 64.656 332.58 65.36 335.332 65.36C338.148 65.36 340.772 64.656 343.204 63.248C345.7 61.776 347.684 59.664 349.156 56.912C350.692 54.16 351.46 50.96 351.46 47.312ZM369.771 47.312C369.771 42 370.859 37.296 373.035 33.2C375.275 29.104 378.283 25.936 382.059 23.696C385.899 21.392 390.123 20.24 394.731 20.24C398.891 20.24 402.507 21.072 405.579 22.736C408.715 24.336 411.211 26.352 413.067 28.784V21.104H424.107V74H413.067V66.128C411.211 68.624 408.683 70.704 405.483 72.368C402.283 74.032 398.635 74.864 394.539 74.864C389.995 74.864 385.835 73.712 382.059 71.408C378.283 69.04 375.275 65.776 373.035 61.616C370.859 57.392 369.771 52.624 369.771 47.312ZM413.067 47.504C413.067 43.856 412.299 40.688 410.763 38C409.291 35.312 407.339 33.264 404.907 31.856C402.475 30.448 399.851 29.744 397.035 29.744C394.219 29.744 391.595 30.448 389.163 31.856C386.731 33.2 384.747 35.216 383.211 37.904C381.739 40.528 381.003 43.664 381.003 47.312C381.003 50.96 381.739 54.16 383.211 56.912C384.747 59.664 386.731 61.776 389.163 63.248C391.659 64.656 394.283 65.36 397.035 65.36C399.851 65.36 402.475 64.656 404.907 63.248C407.339 61.84 409.291 59.792 410.763 57.104C412.299 54.352 413.067 51.152 413.067 47.504ZM495.925 28.976C497.781 26.416 500.309 24.336 503.509 22.736C506.773 21.072 510.389 20.24 514.357 20.24C519.029 20.24 523.253 21.36 527.029 23.6C530.805 25.84 533.781 29.04 535.957 33.2C538.133 37.296 539.221 42 539.221 47.312C539.221 52.624 538.133 57.392 535.957 61.616C533.781 65.776 530.773 69.04 526.933 71.408C523.157 73.712 518.965 74.864 514.357 74.864C510.261 74.864 506.613 74.064 503.413 72.464C500.277 70.864 497.781 68.816 495.925 66.32V74H484.981V2.96H495.925V28.976ZM528.085 47.312C528.085 43.664 527.317 40.528 525.781 37.904C524.309 35.216 522.325 33.2 519.829 31.856C517.397 30.448 514.773 29.744 511.957 29.744C509.205 29.744 506.581 30.448 504.085 31.856C501.653 33.264 499.669 35.312 498.133 38C496.661 40.688 495.925 43.856 495.925 47.504C495.925 51.152 496.661 54.352 498.133 57.104C499.669 59.792 501.653 61.84 504.085 63.248C506.581 64.656 509.205 65.36 511.957 65.36C514.773 65.36 517.397 64.656 519.829 63.248C522.325 61.776 524.309 59.664 525.781 56.912C527.317 54.16 528.085 50.96 528.085 47.312ZM555.612 14.096C553.628 14.096 551.964 13.424 550.62 12.08C549.276 10.736 548.604 9.072 548.604 7.088C548.604 5.104 549.276 3.44 550.62 2.096C551.964 0.751997 553.628 0.0799961 555.612 0.0799961C557.532 0.0799961 559.164 0.751997 560.508 2.096C561.852 3.44 562.524 5.104 562.524 7.088C562.524 9.072 561.852 10.736 560.508 12.08C559.164 13.424 557.532 14.096 555.612 14.096ZM560.988 21.104V74H550.044V21.104H560.988ZM585.052 65.072H609.052V74H572.38V65.072L596.476 30.032H572.38V21.104H609.052V30.032L585.052 65.072ZM698.761 7.27999V74H687.817V44.816H656.425V74H645.481V7.27999H656.425V35.888H687.817V7.27999H698.761ZM718.737 14.096C716.753 14.096 715.089 13.424 713.745 12.08C712.401 10.736 711.729 9.072 711.729 7.088C711.729 5.104 712.401 3.44 713.745 2.096C715.089 0.751997 716.753 0.0799961 718.737 0.0799961C720.657 0.0799961 722.289 0.751997 723.633 2.096C724.977 3.44 725.649 5.104 725.649 7.088C725.649 9.072 724.977 10.736 723.633 12.08C722.289 13.424 720.657 14.096 718.737 14.096ZM724.113 21.104V74H713.169V21.104H724.113ZM734.833 47.312C734.833 42 735.921 37.296 738.097 33.2C740.337 29.104 743.345 25.936 747.121 23.696C750.961 21.392 755.217 20.24 759.889 20.24C763.345 20.24 766.737 21.008 770.065 22.544C773.457 24.016 776.145 26 778.129 28.496V2.96H789.169V74H778.129V66.032C776.337 68.592 773.841 70.704 770.641 72.368C767.505 74.032 763.889 74.864 759.793 74.864C755.185 74.864 750.961 73.712 747.121 71.408C743.345 69.04 740.337 65.776 738.097 61.616C735.921 57.392 734.833 52.624 734.833 47.312ZM778.129 47.504C778.129 43.856 777.361 40.688 775.825 38C774.353 35.312 772.401 33.264 769.969 31.856C767.537 30.448 764.913 29.744 762.097 29.744C759.281 29.744 756.657 30.448 754.225 31.856C751.793 33.2 749.809 35.216 748.273 37.904C746.801 40.528 746.065 43.664 746.065 47.312C746.065 50.96 746.801 54.16 748.273 56.912C749.809 59.664 751.793 61.776 754.225 63.248C756.721 64.656 759.345 65.36 762.097 65.36C764.913 65.36 767.537 64.656 769.969 63.248C772.401 61.84 774.353 59.792 775.825 57.104C777.361 54.352 778.129 51.152 778.129 47.504ZM814.488 28.784C816.088 26.096 818.2 24.016 820.824 22.544C823.512 21.008 826.68 20.24 830.328 20.24V31.568H827.544C823.256 31.568 819.992 32.656 817.752 34.832C815.576 37.008 814.488 40.784 814.488 46.16V74H803.544V21.104H814.488V28.784ZM863.332 74.864C858.34 74.864 853.828 73.744 849.796 71.504C845.764 69.2 842.596 66 840.292 61.904C837.988 57.744 836.836 52.944 836.836 47.504C836.836 42.128 838.02 37.36 840.388 33.2C842.756 29.04 845.988 25.84 850.084 23.6C854.18 21.36 858.756 20.24 863.812 20.24C868.868 20.24 873.444 21.36 877.54 23.6C881.636 25.84 884.868 29.04 887.236 33.2C889.604 37.36 890.788 42.128 890.788 47.504C890.788 52.88 889.572 57.648 887.14 61.808C884.708 65.968 881.38 69.2 877.156 71.504C872.996 73.744 868.388 74.864 863.332 74.864ZM863.332 65.36C866.148 65.36 868.772 64.688 871.204 63.344C873.7 62 875.716 59.984 877.252 57.296C878.788 54.608 879.556 51.344 879.556 47.504C879.556 43.664 878.82 40.432 877.348 37.808C875.876 35.12 873.924 33.104 871.492 31.76C869.06 30.416 866.436 29.744 863.62 29.744C860.804 29.744 858.18 30.416 855.748 31.76C853.38 33.104 851.492 35.12 850.084 37.808C848.676 40.432 847.972 43.664 847.972 47.504C847.972 53.2 849.412 57.616 852.292 60.752C855.236 63.824 858.916 65.36 863.332 65.36ZM912.55 28.976C914.406 26.416 916.934 24.336 920.134 22.736C923.398 21.072 927.014 20.24 930.982 20.24C935.654 20.24 939.878 21.36 943.654 23.6C947.43 25.84 950.406 29.04 952.582 33.2C954.758 37.296 955.846 42 955.846 47.312C955.846 52.624 954.758 57.392 952.582 61.616C950.406 65.776 947.398 69.04 943.558 71.408C939.782 73.712 935.59 74.864 930.982 74.864C926.886 74.864 923.238 74.064 920.038 72.464C916.902 70.864 914.406 68.816 912.55 66.32V74H901.606V2.96H912.55V28.976ZM944.71 47.312C944.71 43.664 943.942 40.528 942.406 37.904C940.934 35.216 938.95 33.2 936.454 31.856C934.022 30.448 931.398 29.744 928.582 29.744C925.83 29.744 923.206 30.448 920.71 31.856C918.278 33.264 916.294 35.312 914.758 38C913.286 40.688 912.55 43.856 912.55 47.504C912.55 51.152 913.286 54.352 914.758 57.104C916.294 59.792 918.278 61.84 920.71 63.248C923.206 64.656 925.83 65.36 928.582 65.36C931.398 65.36 934.022 64.656 936.454 63.248C938.95 61.776 940.934 59.664 942.406 56.912C943.942 54.16 944.71 50.96 944.71 47.312ZM963.021 47.312C963.021 42 964.109 37.296 966.285 33.2C968.525 29.104 971.533 25.936 975.309 23.696C979.149 21.392 983.373 20.24 987.981 20.24C992.141 20.24 995.757 21.072 998.829 22.736C1001.96 24.336 1004.46 26.352 1006.32 28.784V21.104H1017.36V74H1006.32V66.128C1004.46 68.624 1001.93 70.704 998.733 72.368C995.533 74.032 991.885 74.864 987.789 74.864C983.245 74.864 979.085 73.712 975.309 71.408C971.533 69.04 968.525 65.776 966.285 61.616C964.109 57.392 963.021 52.624 963.021 47.312ZM1006.32 47.504C1006.32 43.856 1005.55 40.688 1004.01 38C1002.54 35.312 1000.59 33.264 998.157 31.856C995.725 30.448 993.101 29.744 990.285 29.744C987.469 29.744 984.845 30.448 982.413 31.856C979.981 33.2 977.997 35.216 976.461 37.904C974.989 40.528 974.253 43.664 974.253 47.312C974.253 50.96 974.989 54.16 976.461 56.912C977.997 59.664 979.981 61.776 982.413 63.248C984.909 64.656 987.533 65.36 990.285 65.36C993.101 65.36 995.725 64.656 998.157 63.248C1000.59 61.84 1002.54 59.792 1004.01 57.104C1005.55 54.352 1006.32 51.152 1006.32 47.504ZM1042.68 28.784C1044.28 26.096 1046.39 24.016 1049.01 22.544C1051.7 21.008 1054.87 20.24 1058.52 20.24V31.568H1055.73C1051.44 31.568 1048.18 32.656 1045.94 34.832C1043.76 37.008 1042.68 40.784 1042.68 46.16V74H1031.73V21.104H1042.68V28.784ZM1087.78 74.864C1083.62 74.864 1079.87 74.128 1076.54 72.656C1073.28 71.12 1070.69 69.072 1068.77 66.512C1066.85 63.888 1065.82 60.976 1065.7 57.776H1077.02C1077.22 60.016 1078.27 61.904 1080.19 63.44C1082.18 64.912 1084.64 65.648 1087.58 65.648C1090.66 65.648 1093.02 65.072 1094.69 63.92C1096.42 62.704 1097.28 61.168 1097.28 59.312C1097.28 57.328 1096.32 55.856 1094.4 54.896C1092.54 53.936 1089.57 52.88 1085.47 51.728C1081.5 50.64 1078.27 49.584 1075.78 48.56C1073.28 47.536 1071.1 45.968 1069.25 43.856C1067.46 41.744 1066.56 38.96 1066.56 35.504C1066.56 32.688 1067.39 30.128 1069.06 27.824C1070.72 25.456 1073.09 23.6 1076.16 22.256C1079.3 20.912 1082.88 20.24 1086.91 20.24C1092.93 20.24 1097.76 21.776 1101.41 24.848C1105.12 27.856 1107.1 31.984 1107.36 37.232H1096.42C1096.22 34.864 1095.26 32.976 1093.54 31.568C1091.81 30.16 1089.47 29.456 1086.53 29.456C1083.65 29.456 1081.44 30 1079.9 31.088C1078.37 32.176 1077.6 33.616 1077.6 35.408C1077.6 36.816 1078.11 38 1079.14 38.96C1080.16 39.92 1081.41 40.688 1082.88 41.264C1084.35 41.776 1086.53 42.448 1089.41 43.28C1093.25 44.304 1096.38 45.36 1098.82 46.448C1101.31 47.472 1103.46 49.008 1105.25 51.056C1107.04 53.104 1107.97 55.824 1108.03 59.216C1108.03 62.224 1107.2 64.912 1105.54 67.28C1103.87 69.648 1101.5 71.504 1098.43 72.848C1095.42 74.192 1091.87 74.864 1087.78 74.864ZM1116.21 47.312C1116.21 42 1117.3 37.296 1119.47 33.2C1121.71 29.104 1124.72 25.936 1128.5 23.696C1132.34 21.392 1136.56 20.24 1141.17 20.24C1145.33 20.24 1148.94 21.072 1152.02 22.736C1155.15 24.336 1157.65 26.352 1159.5 28.784V21.104H1170.54V74H1159.5V66.128C1157.65 68.624 1155.12 70.704 1151.92 72.368C1148.72 74.032 1145.07 74.864 1140.98 74.864C1136.43 74.864 1132.27 73.712 1128.5 71.408C1124.72 69.04 1121.71 65.776 1119.47 61.616C1117.3 57.392 1116.21 52.624 1116.21 47.312ZM1159.5 47.504C1159.5 43.856 1158.74 40.688 1157.2 38C1155.73 35.312 1153.78 33.264 1151.34 31.856C1148.91 30.448 1146.29 29.744 1143.47 29.744C1140.66 29.744 1138.03 30.448 1135.6 31.856C1133.17 33.2 1131.18 35.216 1129.65 37.904C1128.18 40.528 1127.44 43.664 1127.44 47.312C1127.44 50.96 1128.18 54.16 1129.65 56.912C1131.18 59.664 1133.17 61.776 1135.6 63.248C1138.1 64.656 1140.72 65.36 1143.47 65.36C1146.29 65.36 1148.91 64.656 1151.34 63.248C1153.78 61.84 1155.73 59.792 1157.2 57.104C1158.74 54.352 1159.5 51.152 1159.5 47.504ZM1211.61 20.24C1215.77 20.24 1219.48 21.104 1222.74 22.832C1226.07 24.56 1228.66 27.12 1230.52 30.512C1232.37 33.904 1233.3 38 1233.3 42.8V74H1222.45V44.432C1222.45 39.696 1221.27 36.08 1218.9 33.584C1216.53 31.024 1213.3 29.744 1209.21 29.744C1205.11 29.744 1201.85 31.024 1199.41 33.584C1197.05 36.08 1195.86 39.696 1195.86 44.432V74H1184.92V21.104H1195.86V27.152C1197.65 24.976 1199.93 23.28 1202.68 22.064C1205.49 20.848 1208.47 20.24 1211.61 20.24Z" fill="black"/>
<path d="M450.481 60.848L438.865 87.344H431.761L438.577 60.848H450.481ZM1251.68 74.672C1249.69 74.672 1248.03 74 1246.69 72.656C1245.34 71.312 1244.67 69.648 1244.67 67.664C1244.67 65.68 1245.34 64.016 1246.69 62.672C1248.03 61.328 1249.69 60.656 1251.68 60.656C1253.6 60.656 1255.23 61.328 1256.57 62.672C1257.92 64.016 1258.59 65.68 1258.59 67.664C1258.59 69.648 1257.92 71.312 1256.57 72.656C1255.23 74 1253.6 74.672 1251.68 74.672Z" fill="#FBB901"/>
</svg>
