<svg width="35" height="36" viewBox="0 0 35 36" fill="none" xmlns="http://www.w3.org/2000/svg">
<path fill-rule="evenodd" clip-rule="evenodd" d="M0 35.002L35 35.002L35 0.00195312L3.0598e-06 0.00195007L0 35.002ZM4.54431 22.6286C4.15378 23.0191 4.15378 23.6523 4.54431 24.0428L10.9083 30.4068C11.2988 30.7973 11.932 30.7973 12.3225 30.4068C12.713 30.0162 12.713 29.3831 12.3225 28.9925L7.66563 24.3357L23.3348 24.3357L24.3348 24.3357L24.3348 23.3357L24.3348 7.66656L28.9916 12.3234C29.3821 12.7139 30.0153 12.7139 30.4058 12.3234C30.7963 11.9329 30.7963 11.2997 30.4058 10.9092L24.0419 4.54524C23.6513 4.15472 23.0182 4.15472 22.6276 4.54524L16.2637 10.9092C15.8732 11.2997 15.8732 11.9329 16.2637 12.3234C16.6542 12.7139 17.2874 12.7139 17.6779 12.3234L22.3348 7.66656L22.3348 22.3357L7.66563 22.3357L12.3225 17.6788C12.713 17.2883 12.713 16.6552 12.3225 16.2646C11.932 15.8741 11.2988 15.8741 10.9083 16.2646L4.54431 22.6286Z" fill="#F7AF03"/>
</svg>
