<svg width="35" height="35" viewBox="0 0 35 35" fill="none" xmlns="http://www.w3.org/2000/svg">
<path fill-rule="evenodd" clip-rule="evenodd" d="M35 0H0V35H35V0ZM19.4998 10C20.8806 10 21.9998 8.88074 21.9998 7.5C21.9998 6.11926 20.8806 5 19.4998 5C18.1191 5 16.9998 6.11926 16.9998 7.5C16.9998 8.88074 18.1191 10 19.4998 10ZM19.4998 11C21.4328 11 22.9998 9.43298 22.9998 7.5C22.9998 5.56702 21.4328 4 19.4998 4C17.5668 4 15.9998 5.56702 15.9998 7.5C15.9998 9.43298 17.5668 11 19.4998 11ZM12.9382 5.17615V5H10.9805V30.9074H12.9382V12.7401L17.7053 30.5315L19.5963 30.0248L15.0182 12.939L23.9535 28.4155L25.649 27.4366L13.0605 5.63275L12.9382 5.17615Z" fill="#F7AF03"/>
</svg>
