<svg width="35" height="35" viewBox="0 0 35 35" fill="none" xmlns="http://www.w3.org/2000/svg">
<path fill-rule="evenodd" clip-rule="evenodd" d="M-1.5299e-06 0L35 -1.5299e-06L35 35L0 35L-1.5299e-06 0ZM7.22266 6.89063L7.22266 9.00195L17.7762 9.00195L17.7762 6.89063L19.1836 6.89063L19.1836 9.00195L22 9.00195L22 11.8168L19.1836 11.8168L19.1836 16.0386L22 16.0386L22 18.8534L19.1836 18.8534L19.1836 22.3721L22 22.3721L22 25.1869L19.1836 25.1869L19.1836 28.0017L17.7762 28.0017L17.7762 25.1869L7.22265 25.1869L7.22265 28.0017L5.81525 28.0017L5.81525 25.1869L3 25.1869L3 22.3721L5.81525 22.3721L5.81525 18.8534L3 18.8534L3 16.0386L5.81525 16.0386L5.81525 11.8168L3 11.8168L3 9.00195L5.81525 9.00195L5.81525 6.89063L7.22266 6.89063ZM7.22266 18.8534L7.22266 22.3721L17.7762 22.3721L17.7762 18.8534L7.22266 18.8534ZM17.7762 16.0386L7.22266 16.0386L7.22266 11.8168L17.7762 11.8168L17.7762 16.0386ZM27.6464 6.64645L24.4645 9.82843C24.2692 10.0237 24.2692 10.3403 24.4645 10.5355C24.6597 10.7308 24.9763 10.7308 25.1716 10.5355L27.5 8.20711L27.5 29L28.5 29L28.5 8.20711L30.8284 10.5355C31.0237 10.7308 31.3403 10.7308 31.5355 10.5355C31.7308 10.3403 31.7308 10.0237 31.5355 9.82843L28.3536 6.64645C28.1583 6.45119 27.8417 6.45119 27.6464 6.64645Z" fill="#F7AF03"/>
</svg>
