<svg width="35" height="35" viewBox="0 0 35 35" fill="none" xmlns="http://www.w3.org/2000/svg">
<path fill-rule="evenodd" clip-rule="evenodd" d="M35 0H0V35H35V0ZM17.0013 21.6875C15.7096 21.6875 14.6055 21.2292 13.6888 20.3125C12.7721 19.3958 12.3138 18.2917 12.3138 17C12.3138 15.7083 12.7721 14.6042 13.6888 13.6875C14.6055 12.7708 15.7096 12.3125 17.0013 12.3125C18.293 12.3125 19.3971 12.7708 20.3138 13.6875C21.2305 14.6042 21.6888 15.7083 21.6888 17C21.6888 18.2917 21.2305 19.3958 20.3138 20.3125C19.3971 21.2292 18.293 21.6875 17.0013 21.6875ZM29.7513 20.5L26.9388 18.3125C26.9805 18.0208 27.0013 17.5833 27.0013 17C27.0013 16.4167 26.9805 15.9792 26.9388 15.6875L29.7513 13.5C30.043 13.2917 30.0846 13 29.8763 12.625L27.1888 8C27.0221 7.70833 26.7513 7.625 26.3763 7.75L23.0638 9.0625C22.3555 8.52083 21.6055 8.08333 20.8138 7.75L20.3138 4.25C20.2305 3.875 20.0221 3.6875 19.6888 3.6875H14.3138C13.9805 3.6875 13.7721 3.875 13.6888 4.25L13.1888 7.75C12.5638 8 11.8138 8.4375 10.9388 9.0625L7.6263 7.75C7.2513 7.625 6.98047 7.70833 6.8138 8L4.1263 12.625C3.91797 13 3.95964 13.2917 4.2513 13.5L7.0638 15.6875C7.02214 15.9792 7.0013 16.4167 7.0013 17C7.0013 17.5833 7.02214 18.0208 7.0638 18.3125L4.2513 20.5C3.95964 20.7083 3.91797 21 4.1263 21.375L6.8138 26C6.98047 26.2917 7.2513 26.375 7.6263 26.25L10.9388 24.9375C11.6471 25.4792 12.3971 25.9167 13.1888 26.25L13.6888 29.75C13.7721 30.125 13.9805 30.3125 14.3138 30.3125H19.6888C20.0221 30.3125 20.2305 30.125 20.3138 29.75L20.8138 26.25C21.4388 26 22.1888 25.5625 23.0638 24.9375L26.3763 26.25C26.7513 26.375 27.0221 26.2917 27.1888 26L29.8763 21.375C30.0846 21 30.043 20.7083 29.7513 20.5Z" fill="#F7AF03"/>
</svg>
