<svg width="35" height="35" viewBox="0 0 35 35" fill="none" xmlns="http://www.w3.org/2000/svg">
<path fill-rule="evenodd" clip-rule="evenodd" d="M35.0011 0H0V35.0011H35.0011V0ZM3.96096 16.7929C3.57043 17.1834 3.57043 17.8166 3.96096 18.2071L10.3249 24.5711C10.7154 24.9616 11.3486 24.9616 11.7391 24.5711C12.1297 24.1805 12.1297 23.5474 11.7391 23.1569L7.08228 18.5H27.9213L23.2645 23.1569C22.8739 23.5474 22.8739 24.1805 23.2645 24.5711C23.655 24.9616 24.2882 24.9616 24.6787 24.5711L31.0426 18.2071C31.4332 17.8166 31.4332 17.1834 31.0426 16.7929L24.6787 10.4289C24.2882 10.0384 23.655 10.0384 23.2645 10.4289C22.8739 10.8195 22.8739 11.4526 23.2645 11.8431L27.9213 16.5H7.08228L11.7391 11.8431C12.1297 11.4526 12.1297 10.8195 11.7391 10.4289C11.3486 10.0384 10.7154 10.0384 10.3249 10.4289L3.96096 16.7929Z" fill="#F7AF03"/>
</svg>
