<svg width="35" height="36" viewBox="0 0 35 36" fill="none" xmlns="http://www.w3.org/2000/svg">
<path fill-rule="evenodd" clip-rule="evenodd" d="M35 0.813477H0V35.8135H35V0.813477ZM18.9879 4.63205H14.8516V8.76779H11.3359C10.2314 8.76779 9.33594 9.66322 9.33594 10.7678V28.8284C9.33594 29.933 10.2314 30.8284 11.3359 30.8284H22.5026C23.6072 30.8284 24.5026 29.933 24.5026 28.8284V10.7678C24.5026 9.66322 23.6072 8.76779 22.5026 8.76779H18.9879V4.63205ZM14.8516 14.283V15.6618H9.33641V14.283H14.8516ZM14.8516 20.8586V19.4798H9.33641V20.8586H14.8516ZM14.8516 23.9352V25.314H9.33641V23.9352H14.8516Z" fill="#F7AF03"/>
</svg>
