<svg width="35" height="35" viewBox="0 0 35 35" fill="none" xmlns="http://www.w3.org/2000/svg">
<path fill-rule="evenodd" clip-rule="evenodd" d="M0 0H35V35H0V0ZM10.7076 14.2394C11.342 14.8592 12.1061 15.169 13 15.169C13.8939 15.169 14.658 14.8592 15.2924 14.2394C15.9267 13.6197 16.2439 12.8732 16.2439 12C16.2439 11.1268 15.9267 10.3803 15.2924 9.76056C14.658 9.14085 13.8939 8.83099 13 8.83099C12.1061 8.83099 11.342 9.14085 10.7076 9.76056C10.0733 10.3803 9.75611 11.1268 9.75611 12C9.75611 12.8732 10.0733 13.6197 10.7076 14.2394ZM19.8771 12.8873L21.8234 14.3662C22.0252 14.507 22.0541 14.7042 21.9099 14.9577L20.0501 18.0845C19.9347 18.2817 19.7473 18.338 19.4878 18.2535L17.1954 17.3662C16.5899 17.7887 16.0709 18.0845 15.6384 18.2535L15.2924 20.6197C15.2347 20.8732 15.0905 21 14.8598 21H11.1402C10.9095 21 10.7653 20.8732 10.7076 20.6197L10.3616 18.2535C9.81378 18.0282 9.29475 17.7324 8.80457 17.3662L6.51221 18.2535C6.2527 18.338 6.06528 18.2817 5.94994 18.0845L4.09011 14.9577C3.94594 14.7042 3.97477 14.507 4.17661 14.3662L6.12295 12.8873C6.09411 12.6901 6.0797 12.3944 6.0797 12C6.0797 11.6056 6.09411 11.3099 6.12295 11.1127L4.17661 9.6338C3.97477 9.49296 3.94594 9.29577 4.09011 9.04225L5.94994 5.91549C6.06528 5.71831 6.2527 5.66197 6.51221 5.74648L8.80457 6.6338C9.41009 6.21127 9.92911 5.91549 10.3616 5.74648L10.7076 3.38028C10.7653 3.12676 10.9095 3 11.1402 3H14.8598C15.0905 3 15.2347 3.12676 15.2924 3.38028L15.6384 5.74648C16.1862 5.97183 16.7052 6.26761 17.1954 6.6338L19.4878 5.74648C19.7473 5.66197 19.9347 5.71831 20.0501 5.91549L21.9099 9.04225C22.0541 9.29577 22.0252 9.49296 21.8234 9.6338L19.8771 11.1127C19.9059 11.3099 19.9203 11.6056 19.9203 12C19.9203 12.3944 19.9059 12.6901 19.8771 12.8873ZM21.9368 27.954C21.2653 27.7741 20.7536 27.3875 20.4018 26.7942C20.0499 26.2009 19.9619 25.5763 20.1377 24.9202C20.3135 24.2642 20.702 23.7672 21.3034 23.4293C21.9047 23.0914 22.5411 23.0125 23.2127 23.1924C23.8842 23.3724 24.3959 23.759 24.7477 24.3522C25.0996 24.9455 25.1876 25.5702 25.0118 26.2262C24.836 26.8823 24.4475 27.3792 23.8461 27.7171C23.2448 28.055 22.6084 28.134 21.9368 27.954ZM28.7272 29.1271L27.5627 27.6242C27.624 27.4819 27.6944 27.2626 27.7738 26.9663C27.8532 26.67 27.9019 26.4449 27.9199 26.291L29.6799 25.5717C29.8599 25.5065 29.9212 25.3642 29.8639 25.1447L29.0961 22.4213C29.0492 22.2499 28.9197 22.1699 28.7077 22.1811L26.8069 22.3863C26.5124 22.0125 26.182 21.6858 25.8157 21.4062L26.0321 19.5589C26.0398 19.3568 25.957 19.2326 25.7837 19.1861L22.9892 18.4373C22.8159 18.3909 22.6821 18.4571 22.5877 18.636L21.8515 20.344C21.4925 20.3839 21.043 20.5016 20.5031 20.6972L18.9595 19.5691C18.7815 19.4534 18.6294 19.4579 18.503 19.5829L16.4764 21.5575C16.317 21.719 16.299 21.8729 16.4223 22.0194L17.5868 23.5222C17.5255 23.6645 17.4551 23.8839 17.3757 24.1801C17.2963 24.4764 17.2476 24.7015 17.2296 24.8555L15.4696 25.5747C15.2896 25.6399 15.2283 25.7822 15.2856 26.0017L16.0534 28.7252C16.1003 28.8965 16.2298 28.9766 16.4418 28.9653L18.3426 28.7602C18.6371 29.1339 18.9675 29.4606 19.3337 29.7402L19.1174 31.5875C19.1097 31.7896 19.1925 31.9139 19.3658 31.9603L22.1603 32.7091C22.3336 32.7555 22.4674 32.6893 22.5618 32.5105L23.298 30.8024C23.657 30.7625 24.1065 30.6448 24.6464 30.4493L26.19 31.5773C26.368 31.6931 26.5201 31.6885 26.6465 31.5636L28.6731 29.5889C28.8325 29.4274 28.8505 29.2735 28.7272 29.1271Z" fill="#F7AF03"/>
</svg>
