<svg width="35" height="35" viewBox="0 0 35 35" fill="none" xmlns="http://www.w3.org/2000/svg">
<path fill-rule="evenodd" clip-rule="evenodd" d="M35 0H0V35H35V0ZM13 6.6875V4H21V6.6875H13ZM28.3125 16C27.8542 14.7083 27.2083 13.5625 26.375 12.5625L28.25 10.625C27.9583 10.2917 27.6458 9.97917 27.3125 9.6875C27.0208 9.35417 26.7083 9.04167 26.375 8.75L24.5 10.6875C23.4583 9.85417 22.2917 9.20833 21 8.75C19.75 8.25 18.4167 8 17 8C15.3333 8 13.7708 8.3125 12.3125 8.9375C10.8958 9.5625 9.625 10.4375 8.5 11.5625C7.41667 12.6458 6.5625 13.9167 5.9375 15.375C5.3125 16.8333 5 18.375 5 20C5 21.6667 5.3125 23.2292 5.9375 24.6875C6.5625 26.1458 7.41667 27.4167 8.5 28.5C9.625 29.5833 10.8958 30.4375 12.3125 31.0625C13.7708 31.6875 15.3333 32 17 32C18.6667 32 20.2083 31.6875 21.625 31.0625C23.0833 30.4375 24.3542 29.5833 25.4375 28.5C26.5625 27.4167 27.4375 26.1458 28.0625 24.6875C28.6875 23.2292 29 21.6667 29 20C29 18.5833 28.7708 17.25 28.3125 16ZM18.3125 13.375V21.375H15.6875L18.3125 13.375Z" fill="#F7AF03"/>
</svg>
