<svg width="35" height="35" viewBox="0 0 35 35" fill="none" xmlns="http://www.w3.org/2000/svg">
<path fill-rule="evenodd" clip-rule="evenodd" d="M35 0H0V35H35V0ZM20.0625 21.6875C20.4375 22.2708 20.625 22.9375 20.625 23.6875C20.625 24.3958 20.4375 25.0625 20.0625 25.6875C19.7292 26.2708 19.25 26.75 18.625 27.125C18.0417 27.5 17.375 27.6875 16.625 27.6875C15.9167 27.6875 15.25 27.5 14.625 27.125C14.0417 26.75 13.5625 26.2708 13.1875 25.6875C12.8125 25.0625 12.625 24.3958 12.625 23.6875H15.3125C15.3125 24.0208 15.4375 24.3333 15.6875 24.625C15.9792 24.875 16.2917 25 16.625 25C17 25 17.3125 24.875 17.5625 24.625C17.8542 24.3333 18 24.0208 18 23.6875C18 23.3125 17.8542 23 17.5625 22.75C17.3125 22.4583 17 22.3125 16.625 22.3125H4V19.6875H16.625C17.375 19.6875 18.0417 19.875 18.625 20.25C19.25 20.5833 19.7292 21.0625 20.0625 21.6875ZM26 12C26.4167 11.2917 26.625 10.5208 26.625 9.6875C26.625 8.8125 26.4167 8.02083 26 7.3125C25.5833 6.60417 25.0208 6.04167 24.3125 5.625C23.6042 5.20833 22.8333 5 22 5C21.125 5 20.3333 5.20833 19.625 5.625C18.9167 6.04167 18.3542 6.60417 17.9375 7.3125C17.5208 8.02083 17.3125 8.8125 17.3125 9.6875H20C20 9.10417 20.1875 8.625 20.5625 8.25C20.9375 7.875 21.4167 7.6875 22 7.6875C22.5417 7.6875 23 7.875 23.375 8.25C23.7917 8.625 24 9.10417 24 9.6875C24 10.2292 23.7917 10.7083 23.375 11.125C23 11.5 22.5417 11.6875 22 11.6875H4V14.3125H22C22.8333 14.3125 23.6042 14.1042 24.3125 13.6875C25.0208 13.2708 25.5833 12.7083 26 12ZM28.3125 16.3125C27.6042 15.8958 26.8333 15.6875 26 15.6875H4V18.3125H26C26.5417 18.3125 27 18.5208 27.375 18.9375C27.7917 19.3125 28 19.7708 28 20.3125C28 20.8958 27.7917 21.375 27.375 21.75C27 22.125 26.5417 22.3125 26 22.3125V25C26.8333 25 27.6042 24.7917 28.3125 24.375C29.0208 23.9583 29.5833 23.3958 30 22.6875C30.4167 21.9792 30.625 21.1875 30.625 20.3125C30.625 19.4792 30.4167 18.7083 30 18C29.5833 17.2917 29.0208 16.7292 28.3125 16.3125Z" fill="#F7AF03"/>
</svg>
