<svg width="35" height="35" viewBox="0 0 35 35" fill="none" xmlns="http://www.w3.org/2000/svg">
<path fill-rule="evenodd" clip-rule="evenodd" d="M35 0H0V35H35V0ZM7.4375 18.25C7.72917 18.0833 8.0625 18 8.4375 18C8.85417 18 9.1875 18.0833 9.4375 18.25C9.72917 18.375 10.0208 18.5208 10.3125 18.6875C10.6042 18.8542 10.9375 19.0208 11.3125 19.1875C11.7292 19.3125 12.25 19.375 12.875 19.375C13.5417 19.375 14.0625 19.3125 14.4375 19.1875C14.8542 19.0208 15.1875 18.8542 15.4375 18.6875C15.7292 18.5208 16 18.375 16.25 18.25C16.5417 18.0833 16.8958 18 17.3125 18C17.7292 18 18.0625 18.0833 18.3125 18.25C18.6042 18.375 18.8958 18.5208 19.1875 18.6875C19.4792 18.8542 19.8125 19.0208 20.1875 19.1875C20.6042 19.3125 21.125 19.375 21.75 19.375C22.4167 19.375 22.9375 19.3125 23.3125 19.1875C23.7292 19.0208 24.0625 18.8542 24.3125 18.6875C24.6042 18.5208 24.875 18.375 25.125 18.25C25.4167 18.0833 25.7708 18 26.1875 18C26.6042 18 26.9375 18.0833 27.1875 18.25C27.4792 18.375 27.7708 18.5208 28.0625 18.6875C28.3542 18.8542 28.6875 19.0208 29.0625 19.1875C29.4792 19.3125 30 19.375 30.625 19.375V16.6875C30.2083 16.6875 29.8542 16.625 29.5625 16.5C29.3125 16.375 29.0417 16.2292 28.75 16.0625C28.4583 15.8542 28.1042 15.6875 27.6875 15.5625C27.3125 15.4375 26.8125 15.375 26.1875 15.375C25.5208 15.375 24.9792 15.4375 24.5625 15.5625C24.1875 15.6875 23.8542 15.8542 23.5625 16.0625C23.3125 16.2292 23.0417 16.375 22.75 16.5C22.5 16.625 22.1667 16.6875 21.75 16.6875C21.3333 16.6875 20.9792 16.625 20.6875 16.5C20.4375 16.375 20.1667 16.2292 19.875 16.0625C19.5833 15.8542 19.2292 15.6875 18.8125 15.5625C18.4375 15.4375 17.9375 15.375 17.3125 15.375C16.6458 15.375 16.1042 15.4375 15.6875 15.5625C15.3125 15.6875 14.9792 15.8542 14.6875 16.0625C14.4375 16.2292 14.1667 16.375 13.875 16.5C13.625 16.625 13.2917 16.6875 12.875 16.6875C12.4583 16.6875 12.1042 16.625 11.8125 16.5C11.5625 16.375 11.2917 16.2292 11 16.0625C10.7083 15.8542 10.3542 15.6875 9.9375 15.5625C9.5625 15.4375 9.0625 15.375 8.4375 15.375C7.77083 15.375 7.22917 15.4375 6.8125 15.5625C6.4375 15.6875 6.10417 15.8542 5.8125 16.0625C5.5625 16.2292 5.29167 16.375 5 16.5C4.75 16.625 4.41667 16.6875 4 16.6875V19.375C4.625 19.375 5.125 19.3125 5.5 19.1875C5.91667 19.0208 6.27083 18.8542 6.5625 18.6875C6.85417 18.5208 7.14583 18.375 7.4375 18.25ZM27.75 20.875C27.375 20.75 26.8542 20.6875 26.1875 20.6875C25.5625 20.6875 25.0417 20.75 24.625 20.875C24.25 21 23.9167 21.1667 23.625 21.375C23.3333 21.5417 23.0417 21.6875 22.75 21.8125C22.5 21.9375 22.1667 22 21.75 22C21.375 22 21.0417 21.9375 20.75 21.8125C20.4583 21.6875 20.1667 21.5417 19.875 21.375C19.625 21.1667 19.2917 21 18.875 20.875C18.4583 20.75 17.9375 20.6875 17.3125 20.6875C16.6875 20.6875 16.1667 20.75 15.75 20.875C15.375 21 15.0417 21.1667 14.75 21.375C14.4583 21.5417 14.1667 21.6875 13.875 21.8125C13.625 21.9375 13.2917 22 12.875 22C12.4583 22 12.1042 21.9375 11.8125 21.8125C11.5625 21.6875 11.2917 21.5417 11 21.375C10.75 21.1667 10.4167 21 10 20.875C9.625 20.75 9.10417 20.6875 8.4375 20.6875C7.77083 20.6875 7.22917 20.75 6.8125 20.875C6.4375 21 6.10417 21.1667 5.8125 21.375C5.5625 21.5417 5.29167 21.6875 5 21.8125C4.75 21.9375 4.41667 22 4 22V24.6875C4.625 24.6875 5.125 24.625 5.5 24.5C5.91667 24.375 6.27083 24.2292 6.5625 24.0625C6.85417 23.8542 7.125 23.6875 7.375 23.5625C7.66667 23.4375 8.02083 23.375 8.4375 23.375C8.85417 23.375 9.1875 23.4375 9.4375 23.5625C9.72917 23.6875 10 23.8542 10.25 24.0625C10.5417 24.2292 10.875 24.375 11.25 24.5C11.6667 24.625 12.2083 24.6875 12.875 24.6875C13.5417 24.6875 14.0625 24.625 14.4375 24.5C14.8542 24.375 15.1875 24.2292 15.4375 24.0625C15.7292 23.8542 16 23.6875 16.25 23.5625C16.5417 23.4375 16.8958 23.375 17.3125 23.375C17.7292 23.375 18.0625 23.4375 18.3125 23.5625C18.6042 23.6875 18.8958 23.8542 19.1875 24.0625C19.4792 24.2292 19.8125 24.375 20.1875 24.5C20.6042 24.625 21.125 24.6875 21.75 24.6875C22.4167 24.6875 22.9375 24.625 23.3125 24.5C23.7292 24.375 24.0625 24.2292 24.3125 24.0625C24.6042 23.8542 24.875 23.6875 25.125 23.5625C25.4167 23.4375 25.7708 23.375 26.1875 23.375C26.6042 23.375 26.9375 23.4375 27.1875 23.5625C27.4792 23.6875 27.7708 23.8542 28.0625 24.0625C28.3542 24.2292 28.6875 24.375 29.0625 24.5C29.4792 24.625 30 24.6875 30.625 24.6875V22C30.2083 22 29.8542 21.9375 29.5625 21.8125C29.3125 21.6875 29.0417 21.5417 28.75 21.375C28.5 21.1667 28.1667 21 27.75 20.875ZM7.4375 12.875C7.72917 12.75 8.0625 12.6875 8.4375 12.6875C8.85417 12.6875 9.1875 12.75 9.4375 12.875C9.72917 13 10.0208 13.1667 10.3125 13.375C10.6042 13.5417 10.9375 13.6875 11.3125 13.8125C11.7292 13.9375 12.25 14 12.875 14C13.5417 14 14.0625 13.9375 14.4375 13.8125C14.8542 13.6875 15.1875 13.5417 15.4375 13.375C15.7292 13.1667 16 13 16.25 12.875C16.5417 12.75 16.8958 12.6875 17.3125 12.6875C17.7292 12.6875 18.0625 12.75 18.3125 12.875C18.6042 13 18.8958 13.1667 19.1875 13.375C19.4792 13.5417 19.8125 13.6875 20.1875 13.8125C20.6042 13.9375 21.125 14 21.75 14C22.4167 14 22.9375 13.9375 23.3125 13.8125C23.7292 13.6875 24.0625 13.5417 24.3125 13.375C24.6042 13.1667 24.875 13 25.125 12.875C25.4167 12.75 25.7708 12.6875 26.1875 12.6875C26.6042 12.6875 26.9375 12.75 27.1875 12.875C27.4792 13 27.7708 13.1667 28.0625 13.375C28.3542 13.5417 28.6875 13.6875 29.0625 13.8125C29.4792 13.9375 30 14 30.625 14V11.375C30.2083 11.375 29.8542 11.3125 29.5625 11.1875C29.3125 11.0208 29.0417 10.8542 28.75 10.6875C28.4583 10.5208 28.1042 10.375 27.6875 10.25C27.3125 10.0833 26.8125 10 26.1875 10C25.5208 10 24.9792 10.0833 24.5625 10.25C24.1875 10.375 23.8542 10.5208 23.5625 10.6875C23.3125 10.8542 23.0417 11.0208 22.75 11.1875C22.5 11.3125 22.1667 11.375 21.75 11.375C21.3333 11.375 20.9792 11.3125 20.6875 11.1875C20.4375 11.0208 20.1667 10.8542 19.875 10.6875C19.5833 10.5208 19.2292 10.375 18.8125 10.25C18.4375 10.0833 17.9375 10 17.3125 10C16.6458 10 16.1042 10.0833 15.6875 10.25C15.3125 10.375 14.9792 10.5208 14.6875 10.6875C14.4375 10.8542 14.1667 11.0208 13.875 11.1875C13.625 11.3125 13.2917 11.375 12.875 11.375C12.4583 11.375 12.1042 11.3125 11.8125 11.1875C11.5625 11.0208 11.2917 10.8542 11 10.6875C10.7083 10.5208 10.3542 10.375 9.9375 10.25C9.5625 10.0833 9.0625 10 8.4375 10C7.77083 10 7.22917 10.0833 6.8125 10.25C6.4375 10.375 6.10417 10.5208 5.8125 10.6875C5.5625 10.8542 5.29167 11.0208 5 11.1875C4.75 11.3125 4.41667 11.375 4 11.375V14C4.625 14 5.125 13.9375 5.5 13.8125C5.91667 13.6875 6.27083 13.5417 6.5625 13.375C6.85417 13.1667 7.14583 13 7.4375 12.875Z" fill="#F7AF03"/>
</svg>
