<svg width="35" height="35" viewBox="0 0 35 35" fill="none" xmlns="http://www.w3.org/2000/svg">
<path fill-rule="evenodd" clip-rule="evenodd" d="M35 35L35 0L0 -1.5299e-06L-1.52991e-06 35L35 35ZM18.2076 3.95968C17.8171 3.56916 17.1839 3.56916 16.7934 3.95968L10.4295 10.3236C10.0389 10.7142 10.0389 11.3473 10.4295 11.7379C10.82 12.1284 11.4531 12.1284 11.8437 11.7379L16.5005 7.081L16.5005 27.9192L11.8437 23.2624C11.4531 22.8719 10.82 22.8719 10.4295 23.2624C10.0389 23.6529 10.0389 24.2861 10.4295 24.6766L16.7934 31.0406C17.1839 31.4311 17.8171 31.4311 18.2076 31.0406L24.5716 24.6766C24.9621 24.2861 24.9621 23.6529 24.5716 23.2624C24.1811 22.8719 23.5479 22.8719 23.1574 23.2624L18.5005 27.9192L18.5005 7.081L23.1574 11.7379C23.5479 12.1284 24.1811 12.1284 24.5716 11.7379C24.9621 11.3473 24.9621 10.7142 24.5716 10.3236L18.2076 3.95968Z" fill="#F7AF03"/>
</svg>
