<svg width="35" height="35" viewBox="0 0 35 35" fill="none" xmlns="http://www.w3.org/2000/svg">
<path fill-rule="evenodd" clip-rule="evenodd" d="M35 35L0 35L-3.0598e-06 0L35 -3.0598e-06L35 35ZM32.0303 18.0532C32.3232 18.346 32.3232 18.8209 32.0303 19.1138L27.2574 23.8868C26.9645 24.1797 26.4896 24.1797 26.1967 23.8868C25.9038 23.5939 25.9038 23.119 26.1967 22.8261L29.6893 19.3335L17.9166 19.3335L17.9166 30.9389L21.4093 27.4462C21.7022 27.1533 22.1771 27.1533 22.4699 27.4462C22.7628 27.7391 22.7628 28.214 22.4699 28.5069L17.697 33.2798C17.4041 33.5727 16.9292 33.5727 16.6363 33.2798L11.8633 28.5069C11.5704 28.214 11.5704 27.7391 11.8633 27.4462C12.1562 27.1533 12.6311 27.1533 12.924 27.4462L16.4166 30.9389L16.4166 19.3335L4.81064 19.3335L8.30328 22.8261C8.59617 23.119 8.59617 23.5939 8.30328 23.8868C8.01039 24.1797 7.53551 24.1797 7.24262 23.8868L2.46965 19.1138C2.17676 18.8209 2.17676 18.3461 2.46965 18.0532L7.24262 13.2802C7.53551 12.9873 8.01039 12.9873 8.30328 13.2802C8.59617 13.5731 8.59617 14.048 8.30328 14.3408L4.81064 17.8335L16.4166 17.8335L16.4166 5.81066L12.924 9.3033C12.6311 9.59619 12.1562 9.59619 11.8633 9.3033C11.5705 9.01041 11.5705 8.53553 11.8633 8.24264L16.6363 3.46967C16.9292 3.17678 17.4041 3.17678 17.697 3.46967L22.4699 8.24264C22.7628 8.53554 22.7628 9.01041 22.4699 9.3033C22.1771 9.5962 21.7022 9.5962 21.4093 9.3033L17.9166 5.81066L17.9166 17.8335L29.6893 17.8335L26.1967 14.3408C25.9038 14.048 25.9038 13.5731 26.1967 13.2802C26.4896 12.9873 26.9645 12.9873 27.2574 13.2802L32.0303 18.0532Z" fill="#F7AF03"/>
</svg>
