<svg width="35" height="35" viewBox="0 0 35 35" fill="none" xmlns="http://www.w3.org/2000/svg">
<path fill-rule="evenodd" clip-rule="evenodd" d="M35 0H0V35H35V0ZM3.95968 16.7924C3.56916 17.1829 3.56916 17.8161 3.95968 18.2066L10.3236 24.5705C10.7142 24.9611 11.3473 24.9611 11.7379 24.5705C12.1284 24.18 12.1284 23.5469 11.7379 23.1563L7.081 18.4995H27.9192L23.2624 23.1563C22.8719 23.5469 22.8719 24.18 23.2624 24.5705C23.6529 24.9611 24.2861 24.9611 24.6766 24.5705L31.0406 18.2066C31.4311 17.8161 31.4311 17.1829 31.0406 16.7924L24.6766 10.4284C24.2861 10.0379 23.6529 10.0379 23.2624 10.4284C22.8719 10.8189 22.8719 11.4521 23.2624 11.8426L27.9192 16.4995H7.081L11.7379 11.8426C12.1284 11.4521 12.1284 10.8189 11.7379 10.4284C11.3473 10.0379 10.7142 10.0379 10.3236 10.4284L3.95968 16.7924Z" fill="#F7AF03"/>
</svg>
