<svg width="35" height="35" viewBox="0 0 35 35" fill="none" xmlns="http://www.w3.org/2000/svg">
<path fill-rule="evenodd" clip-rule="evenodd" d="M35 0H0V35H35V0ZM15.8612 21.4918C16.3352 21.9293 16.8821 22.1481 17.5018 22.1481C18.1581 22.1481 18.705 21.9293 19.1425 21.4918L25.7597 11.5934L15.8612 18.1559C15.3873 18.6299 15.1503 19.195 15.1503 19.8512C15.1503 20.471 15.3873 21.0179 15.8612 21.4918ZM28.6034 16.57C28.2388 15.3304 27.8013 14.3096 27.2909 13.5075L25.869 15.6403C26.5253 16.9528 26.8534 18.3564 26.8534 19.8512C26.8534 21.5283 26.4341 23.0778 25.5956 24.4997H9.40809C8.56955 23.0778 8.15028 21.5283 8.15028 19.8512C8.15028 17.2627 9.06174 15.057 10.8847 13.234C12.744 11.4111 14.9498 10.4997 17.5018 10.4997C18.9602 10.4997 20.3456 10.8278 21.6581 11.484L23.8456 10.0622C23.0435 9.55174 22.0227 9.11424 20.7831 8.74966C19.58 8.38508 18.5044 8.20278 17.5565 8.20278C14.3117 8.20278 11.5409 9.35122 9.24403 11.6481C6.98361 13.9085 5.85341 16.6429 5.85341 19.8512C5.85341 22.0023 6.36382 23.9346 7.38466 25.6481C7.85861 26.4502 8.53309 26.8512 9.40809 26.8512H25.5956C26.4706 26.8512 27.1451 26.4502 27.619 25.6481C28.6399 23.9346 29.1503 22.0023 29.1503 19.8512C29.1503 18.9033 28.968 17.8096 28.6034 16.57Z" fill="#F7AF03"/>
</svg>
