<svg width="35" height="36" viewBox="0 0 35 36" fill="none" xmlns="http://www.w3.org/2000/svg">
<path fill-rule="evenodd" clip-rule="evenodd" d="M35 0.0708008H0V35.0708H35V0.0708008ZM17.5167 21.0896V24.5896C15.5845 24.5896 13.9256 23.9151 12.5402 22.5662C11.1912 21.1808 10.5167 19.5219 10.5167 17.5896C10.5167 16.3865 10.7902 15.2927 11.3371 14.3084L9.64175 12.6131C8.65737 14.1078 8.16519 15.7667 8.16519 17.5896C8.16519 20.1417 9.07664 22.3474 10.8996 24.2068C12.7589 26.0297 14.9647 26.9412 17.5167 26.9412V30.4412L22.1652 25.7381L17.5167 21.0896ZM24.0792 11.0271C22.2563 9.16774 20.0688 8.23805 17.5167 8.23805V4.73805L12.8683 9.44118L17.5167 14.0896V10.5896C19.449 10.5896 21.0897 11.2823 22.4386 12.6677C23.824 14.0167 24.5167 15.6573 24.5167 17.5896C24.5167 18.7927 24.2433 19.8865 23.6964 20.8709L25.3917 22.5662C26.3761 21.0714 26.8683 19.4125 26.8683 17.5896C26.8683 15.0375 25.9386 12.85 24.0792 11.0271Z" fill="#F7AF03"/>
</svg>
