<svg width="35" height="35" viewBox="0 0 35 35" fill="none" xmlns="http://www.w3.org/2000/svg">
<path fill-rule="evenodd" clip-rule="evenodd" d="M0 0H35V35H0V0ZM4.64645 28.3536C4.45117 28.1583 4.45117 27.8417 4.64645 27.6464L7.82843 24.4645C8.02368 24.2692 8.34027 24.2692 8.53552 24.4645C8.7308 24.6597 8.7308 24.9763 8.53552 25.1716L6.20709 27.5H28.7929L26.4645 25.1716C26.2692 24.9763 26.2692 24.6597 26.4645 24.4645C26.6597 24.2692 26.9763 24.2692 27.1716 24.4645L30.3536 27.6464C30.5488 27.8417 30.5488 28.1583 30.3536 28.3536L27.1716 31.5355C26.9763 31.7308 26.6597 31.7308 26.4645 31.5355C26.2692 31.3403 26.2692 31.0237 26.4645 30.8284L28.7929 28.5H6.20709L8.53552 30.8284C8.7308 31.0237 8.7308 31.3403 8.53552 31.5355C8.34027 31.7308 8.02368 31.7308 7.82843 31.5355L4.64645 28.3536ZM5 6V22H10V11C10 10.4477 10.4477 10 11 10H24C24.5523 10 25 10.4477 25 11V22H30V6C30 5.44769 29.5523 5 29 5H6C5.44772 5 5 5.44769 5 6Z" fill="#F7AF03"/>
</svg>
