<svg width="35" height="36" viewBox="0 0 35 36" fill="none" xmlns="http://www.w3.org/2000/svg">
<path fill-rule="evenodd" clip-rule="evenodd" d="M0 0.828613H35V35.8286H0V0.828613ZM10.9289 11.6569L17.2929 5.29289C17.6834 4.90237 18.3166 4.90237 18.7071 5.29289L25.0711 11.6569C25.4616 12.0474 25.4616 12.6805 25.0711 13.0711C24.6805 13.4616 24.0474 13.4616 23.6569 13.0711L19 8.41421V19H17V8.41421L12.3431 13.0711C11.9526 13.4616 11.3195 13.4616 10.9289 13.0711C10.5384 12.6805 10.5384 12.0474 10.9289 11.6569ZM21.0134 29L20.1241 26.8424H17.1978L16.3189 29H15.3779L18.2629 22H19.1004L21.975 29H21.0134ZM19.0177 23.9526C18.997 23.9005 18.9626 23.8061 18.9143 23.6695C18.8661 23.5328 18.8178 23.3928 18.7695 23.2497C18.7282 23.1 18.6937 22.9861 18.6661 22.9079C18.6317 23.0381 18.5938 23.1715 18.5524 23.3082C18.5179 23.4384 18.48 23.5588 18.4387 23.6695C18.4042 23.7801 18.3732 23.8745 18.3456 23.9526L17.508 26.0614H19.8449L19.0177 23.9526ZM10.2572 29L7.82722 22.8884H7.78586C7.79965 23.0186 7.80999 23.1846 7.81688 23.3863C7.83067 23.5881 7.84101 23.8094 7.8479 24.0502C7.85479 24.2845 7.85824 24.5253 7.85824 24.7727V29H7V22.0293H8.37525L10.6501 27.7406H10.6915L13.0077 22.0293H14.3726V29H13.4523V24.7141C13.4523 24.4863 13.4558 24.2617 13.4627 24.0404C13.4696 23.8126 13.4799 23.6011 13.4937 23.4059C13.5075 23.2041 13.5178 23.0349 13.5247 22.8982H13.4833L11.0224 29H10.2572ZM26.9453 29H28L25.539 25.3487L27.8242 22.0293H26.8419L25.022 24.7629L23.2125 22.0293H22.1784L24.474 25.3682L22.0233 29H23.0057L24.991 25.9735L26.9453 29Z" fill="#F7AF03"/>
</svg>
