<svg width="35" height="36" viewBox="0 0 35 36" fill="none" xmlns="http://www.w3.org/2000/svg">
<path fill-rule="evenodd" clip-rule="evenodd" d="M35 0.0708008H0V35.0708H35V0.0708008ZM23.3332 13.4327C22.2759 13.4327 21.1275 13.7426 19.8879 14.3624C19.0129 14.7999 18.2108 15.0187 17.4817 15.0187C16.7525 15.0187 15.9504 14.7999 15.0754 14.3624C13.8358 13.7426 12.6874 13.4327 11.6301 13.4327C10.5728 13.4327 9.42437 13.7426 8.18479 14.3624C7.30979 14.7999 6.52593 15.0187 5.83323 15.0187V17.3155C6.89052 17.3155 8.03895 17.0056 9.27854 16.3859C10.2265 15.9119 11.0103 15.6749 11.6301 15.6749C12.2864 15.6749 13.0884 15.9119 14.0364 16.3859C15.2759 17.0056 16.4244 17.3155 17.4817 17.3155C18.539 17.3155 19.6874 17.0056 20.927 16.3859C21.8749 15.9119 22.677 15.6749 23.3332 15.6749C23.953 15.6749 24.7369 15.9119 25.6848 16.3859C26.9244 17.0056 28.0728 17.3155 29.1301 17.3155V15.0187C28.4374 15.0187 27.6535 14.7999 26.7785 14.3624C25.539 13.7426 24.3905 13.4327 23.3332 13.4327ZM29.1301 9.87805C28.5103 9.87805 27.7265 9.64107 26.7785 9.16711C25.539 8.54732 24.3905 8.23742 23.3332 8.23742C22.2759 8.23742 21.1275 8.54732 19.8879 9.16711C18.94 9.64107 18.1379 9.87805 17.4817 9.87805C16.8254 9.87805 16.0233 9.64107 15.0754 9.16711C13.8358 8.54732 12.6874 8.23742 11.6301 8.23742C10.5728 8.23742 9.42437 8.54732 8.18479 9.16711C7.23687 9.64107 6.45302 9.87805 5.83323 9.87805V12.1202C6.89052 12.1202 8.03895 11.8103 9.27854 11.1905C10.2265 10.7166 11.0103 10.4796 11.6301 10.4796C12.2864 10.4796 13.0884 10.7166 14.0364 11.1905C15.2759 11.8103 16.4244 12.1202 17.4817 12.1202C18.539 12.1202 19.6874 11.8103 20.927 11.1905C21.8749 10.7166 22.677 10.4796 23.3332 10.4796C23.953 10.4796 24.7369 10.7166 25.6848 11.1905C26.9244 11.8103 28.0728 12.1202 29.1301 12.1202V9.87805ZM23.3332 18.628C22.2759 18.628 21.1275 18.9379 19.8879 19.5577C19.0129 19.9952 18.2108 20.214 17.4817 20.214C16.7525 20.214 15.9504 19.9952 15.0754 19.5577C13.8358 18.9379 12.6874 18.628 11.6301 18.628C10.5728 18.628 9.42437 18.9379 8.18479 19.5577C7.30979 19.9952 6.52593 20.214 5.83323 20.214V22.5109C6.89052 22.5109 8.03895 22.201 9.27854 21.5812C10.2265 21.1072 11.0103 20.8702 11.6301 20.8702C12.2864 20.8702 13.0884 21.1072 14.0364 21.5812C15.2759 22.201 16.4244 22.5109 17.4817 22.5109C18.539 22.5109 19.6874 22.201 20.927 21.5812C21.8749 21.1072 22.677 20.8702 23.3332 20.8702C23.953 20.8702 24.7369 21.1072 25.6848 21.5812C26.9244 22.201 28.0728 22.5109 29.1301 22.5109V20.214C28.4374 20.214 27.6535 19.9952 26.7785 19.5577C25.539 18.9379 24.3905 18.628 23.3332 18.628ZM23.3332 23.7687C22.3489 23.7687 21.2004 24.0968 19.8879 24.753C19.0129 25.1905 18.2108 25.4093 17.4817 25.4093C16.7525 25.4093 15.9504 25.1905 15.0754 24.753C13.7629 24.0968 12.6145 23.7687 11.6301 23.7687C10.6457 23.7687 9.49729 24.0968 8.18479 24.753C7.30979 25.1905 6.52593 25.4093 5.83323 25.4093V27.7062C6.89052 27.7062 8.03895 27.3963 9.27854 26.7765C10.2265 26.3025 11.0103 26.0655 11.6301 26.0655C12.2864 26.0655 13.0884 26.3025 14.0364 26.7765C15.2759 27.3963 16.4244 27.7062 17.4817 27.7062C18.539 27.7062 19.6874 27.3963 20.927 26.7765C21.8749 26.3025 22.677 26.0655 23.3332 26.0655C23.953 26.0655 24.7369 26.3025 25.6848 26.7765C26.9244 27.3963 28.0728 27.7062 29.1301 27.7062V25.4093C28.4374 25.4093 27.6535 25.1905 26.7785 24.753C25.466 24.0968 24.3176 23.7687 23.3332 23.7687Z" fill="#F7AF03"/>
</svg>
