<svg width="35" height="35" viewBox="0 0 35 35" fill="none" xmlns="http://www.w3.org/2000/svg">
<path fill-rule="evenodd" clip-rule="evenodd" d="M35 35.0011L35 0L-0.00110245 -1.52995e-06L-0.00110398 35.0011L35 35.0011ZM18.2071 3.95886C17.8166 3.56834 17.1834 3.56834 16.7929 3.95886L10.4289 10.3228C10.0384 10.7133 10.0384 11.3465 10.4289 11.737C10.8195 12.1276 11.4526 12.1276 11.8431 11.737L16.5 7.08018L16.5 27.9192L11.8431 23.2624C11.4526 22.8718 10.8195 22.8718 10.4289 23.2624C10.0384 23.6529 10.0384 24.2861 10.4289 24.6766L16.7929 31.0405C17.1834 31.4311 17.8166 31.4311 18.2071 31.0405L24.5711 24.6766C24.9616 24.2861 24.9616 23.6529 24.5711 23.2624C24.1805 22.8719 23.5474 22.8719 23.1569 23.2624L18.5 27.9192L18.5 7.08018L23.1569 11.737C23.5474 12.1276 24.1805 12.1276 24.5711 11.737C24.9616 11.3465 24.9616 10.7133 24.5711 10.3228L18.2071 3.95886Z" fill="#F7AF03"/>
</svg>
