<svg width="35" height="35" viewBox="0 0 35 35" fill="none" xmlns="http://www.w3.org/2000/svg">
<path fill-rule="evenodd" clip-rule="evenodd" d="M35.0011 0H0V35.0011H35.0011V0ZM19.8533 12.852V16.3522C20.9106 16.5709 21.9862 16.9537 23.08 17.5006C24.1738 18.0475 25.1764 18.8314 26.0879 19.8523C27.0358 20.8367 27.7832 22.0945 28.3301 23.6258C28.877 25.1571 29.1505 26.9983 29.1505 29.1494H22.1503V26.8525H26.6895C26.4707 25.2483 26.0514 23.9357 25.4316 22.9149C24.8483 21.8575 24.1555 21.0372 23.3534 20.4538C22.5878 19.834 21.8039 19.3783 21.0018 19.0866C20.2361 18.7949 19.5252 18.6126 18.8689 18.5397C18.2491 18.4668 17.7933 18.4303 17.5017 18.4303C17.21 18.4303 16.736 18.4668 16.0798 18.5397C15.4599 18.6126 14.749 18.7949 13.9469 19.0866C13.1812 19.3783 12.3973 19.834 11.5952 20.4538C10.8296 21.0372 10.1369 21.8575 9.51705 22.9149C8.9337 23.9357 8.53264 25.2483 8.31389 26.8525H12.8531V29.1494H5.85287C5.85287 26.9983 6.12632 25.1571 6.67321 23.6258C7.2201 22.0945 7.94929 20.8367 8.86078 19.8523C9.80872 18.8314 10.8296 18.0475 11.9234 17.5006C13.0172 16.9537 14.0927 16.5709 15.15 16.3522V12.852C13.4 12.5968 11.814 12.1411 10.3921 11.4848C8.97016 10.7921 7.85814 9.97175 7.05603 9.0238C6.25393 8.03939 5.85287 6.98207 5.85287 5.85182H29.1505C29.1505 6.98207 28.7494 8.03939 27.9473 9.0238C27.1452 9.97175 26.0332 10.7921 24.6113 11.4848C23.1894 12.1411 21.6034 12.5968 19.8533 12.852ZM15.8063 28.4932C16.2803 28.9307 16.8454 29.1494 17.5017 29.1494C18.1579 29.1494 18.7048 28.9307 19.1423 28.4932C19.3246 28.3109 19.5434 27.9827 19.7986 27.5088C20.0538 26.9983 20.3091 26.4514 20.5643 25.8681C20.8559 25.2483 21.1112 24.6649 21.3299 24.118C21.5851 23.5711 21.7857 23.1154 21.9315 22.7508L22.1503 22.1492L21.6034 22.368C21.2388 22.5138 20.7648 22.7143 20.1814 22.9695C19.6346 23.1883 19.0512 23.4435 18.4314 23.7352C17.848 23.9904 17.3194 24.2456 16.8454 24.5008C16.3714 24.7561 16.0433 24.993 15.861 25.2118C15.387 25.6493 15.15 26.1962 15.15 26.8525C15.15 27.4723 15.3688 28.0192 15.8063 28.4932Z" fill="#F7AF03"/>
</svg>
