<svg width="35" height="36" viewBox="0 0 35 36" fill="none" xmlns="http://www.w3.org/2000/svg">
<path fill-rule="evenodd" clip-rule="evenodd" d="M0 0.813477H35V35.8135H0V0.813477ZM16.0121 4.63205H20.1484V8.76851H23.6641C24.7686 8.76851 25.6641 9.66394 25.6641 10.7685V28.8291C25.6641 29.9337 24.7686 30.8291 23.6641 30.8291H12.4974C11.3928 30.8291 10.4974 29.9337 10.4974 28.8291V10.7685C10.4974 9.66394 11.3928 8.76851 12.4974 8.76851H16.0121V4.63205ZM20.1484 14.2835V15.6623H25.6636V14.2835H20.1484ZM20.1484 20.8596V19.4808H25.6636V20.8596L20.1484 20.8596ZM20.1484 23.9352V25.314H25.6636V23.9352H20.1484Z" fill="#F7AF03"/>
</svg>
