<svg width="35" height="35" viewBox="0 0 35 35" fill="none" xmlns="http://www.w3.org/2000/svg">
<path fill-rule="evenodd" clip-rule="evenodd" d="M35 0L35 35L0 35L0 0L35 0ZM28.1094 7.22266H25.998L25.998 17.7762H28.1094V19.1836H25.998V22H23.1832L23.1832 19.1836H18.9614L18.9614 22H16.1466L16.1466 19.1836L12.6279 19.1836V22L9.81311 22V19.1836H6.99826V17.7762H9.81311L9.81311 7.22266L6.99826 7.22265V5.81525L9.81311 5.81525L9.81311 3L12.6279 3L12.6279 5.81525L16.1466 5.81525V3L18.9614 3V5.81525L23.1832 5.81525V3L25.998 3V5.81525H28.1094V7.22266ZM16.1466 7.22266L12.6279 7.22266L12.6279 17.7762L16.1466 17.7762L16.1466 7.22266ZM18.9614 17.7762L18.9614 7.22266L23.1832 7.22266L23.1832 17.7762H18.9614ZM28.3536 27.6464L25.1716 24.4645C24.9763 24.2692 24.6597 24.2692 24.4645 24.4645C24.2692 24.6597 24.2692 24.9763 24.4645 25.1716L26.7929 27.5L6 27.5V28.5L26.7929 28.5L24.4645 30.8284C24.2692 31.0237 24.2692 31.3403 24.4645 31.5355C24.6597 31.7308 24.9763 31.7308 25.1716 31.5355L28.3536 28.3536C28.5488 28.1583 28.5488 27.8417 28.3536 27.6464Z" fill="#F7AF03"/>
</svg>
