<svg width="35" height="35" viewBox="0 0 35 35" fill="none" xmlns="http://www.w3.org/2000/svg">
<path fill-rule="evenodd" clip-rule="evenodd" d="M35 0V35H0V0H35ZM28.1094 7.22222L25.9983 7.22222V17.7778H28.1094V19.1852H25.9983L25.9983 22H23.1834L23.1834 19.1852H18.9612L18.9612 22H16.1464L16.1464 19.1852L12.6279 19.1852V22H9.81308V19.1852H6.99826V17.7778H9.81308L9.81308 7.22222L6.99826 7.22222V5.81481L9.81308 5.81481V3L12.6279 3V5.81481H16.1464V3H18.9612V5.81482L23.1834 5.81482V3H25.9983V5.81482H28.1094V7.22222ZM16.1464 7.22222H12.6279L12.6279 17.7778L16.1464 17.7778V7.22222ZM18.9612 17.7778V7.22222H23.1834V17.7778H18.9612ZM4.64645 27.6464C4.45118 27.8417 4.45118 28.1583 4.64645 28.3536L7.82843 31.5355C8.02369 31.7308 8.34027 31.7308 8.53553 31.5355C8.7308 31.3403 8.7308 31.0237 8.53553 30.8284L6.20711 28.5H28.7929L26.4645 30.8284C26.2692 31.0237 26.2692 31.3403 26.4645 31.5355C26.6597 31.7308 26.9763 31.7308 27.1716 31.5355L30.3536 28.3536C30.5488 28.1583 30.5488 27.8417 30.3536 27.6464L27.1716 24.4645C26.9763 24.2692 26.6597 24.2692 26.4645 24.4645C26.2692 24.6597 26.2692 24.9763 26.4645 25.1716L28.7929 27.5H6.20711L8.53553 25.1716C8.7308 24.9763 8.7308 24.6597 8.53553 24.4645C8.34027 24.2692 8.02369 24.2692 7.82843 24.4645L4.64645 27.6464Z" fill="#F7AF03"/>
</svg>
