<svg width="35" height="35" viewBox="0 0 35 35" fill="none" xmlns="http://www.w3.org/2000/svg">
<path fill-rule="evenodd" clip-rule="evenodd" d="M0 0H35V35H0V0ZM17.5 17.4457C16.8802 17.4457 16.3333 17.227 15.8594 16.7895C15.3854 16.3155 15.1484 15.7687 15.1484 15.1489C15.1484 14.4926 15.3854 13.9275 15.8594 13.4536L25.7578 6.89105L19.1406 16.7895C18.7031 17.227 18.1562 17.4457 17.5 17.4457ZM27.2891 8.80511C27.7995 9.6072 28.237 10.628 28.6016 11.8676C28.9661 13.1072 29.1484 14.2009 29.1484 15.1489C29.1484 17.2999 28.638 19.2322 27.6172 20.9457C27.1432 21.7478 26.4688 22.1489 25.5938 22.1489H9.40625C8.53125 22.1489 7.85677 21.7478 7.38281 20.9457C6.36198 19.2322 5.85156 17.2999 5.85156 15.1489C5.85156 11.9405 6.98177 9.20616 9.24219 6.94574C11.5391 4.64886 14.3099 3.50043 17.5547 3.50043C18.5026 3.50043 19.5781 3.68272 20.7812 4.0473C22.0208 4.41189 23.0417 4.84939 23.8438 5.3598L21.6562 6.78168C20.3438 6.12543 18.9583 5.7973 17.5 5.7973C14.9479 5.7973 12.7422 6.70876 10.8828 8.53168C9.0599 10.3546 8.14844 12.5603 8.14844 15.1489C8.14844 16.8259 8.56771 18.3754 9.40625 19.7973H25.5938C26.4323 18.3754 26.8516 16.8259 26.8516 15.1489C26.8516 13.6541 26.5234 12.2504 25.8672 10.9379L27.2891 8.80511ZM5.48092 27.646C5.28566 27.8413 5.28566 28.1579 5.48092 28.3531L8.6629 31.5351C8.85816 31.7304 9.17474 31.7304 9.37001 31.5351C9.56527 31.3398 9.56527 31.0233 9.37001 30.828L7.04158 28.4996L26.794 28.4996L24.4656 30.828C24.2703 31.0233 24.2703 31.3398 24.4656 31.5351C24.6609 31.7304 24.9774 31.7304 25.1727 31.5351L28.3547 28.3531C28.55 28.1579 28.55 27.8413 28.3547 27.646L25.1727 24.464C24.9774 24.2688 24.6609 24.2688 24.4656 24.464C24.2703 24.6593 24.2703 24.9759 24.4656 25.1711L26.794 27.4996L7.04158 27.4996L9.37001 25.1711C9.56527 24.9759 9.56527 24.6593 9.37001 24.464C9.17474 24.2688 8.85816 24.2688 8.6629 24.464L5.48092 27.646Z" fill="#F7AF03"/>
</svg>
