<svg width="35" height="35" viewBox="0 0 35 35" fill="none" xmlns="http://www.w3.org/2000/svg">
<path fill-rule="evenodd" clip-rule="evenodd" d="M35 0H0V35H35V0ZM4.29289 17.2929C3.90237 17.6834 3.90237 18.3166 4.29289 18.7071L10.6569 25.0711C11.0474 25.4616 11.6805 25.4616 12.0711 25.0711C12.4616 24.6805 12.4616 24.0474 12.0711 23.6569L7.41421 19H27.5858L22.9289 23.6569C22.5384 24.0474 22.5384 24.6805 22.9289 25.0711C23.3195 25.4616 23.9526 25.4616 24.3431 25.0711L30.7071 18.7071C31.0976 18.3166 31.0976 17.6834 30.7071 17.2929L24.3431 10.9289C23.9526 10.5384 23.3195 10.5384 22.9289 10.9289C22.5384 11.3195 22.5384 11.9526 22.9289 12.3431L27.5858 17H7.41421L12.0711 12.3431C12.4616 11.9526 12.4616 11.3195 12.0711 10.9289C11.6805 10.5384 11.0474 10.5384 10.6569 10.9289L4.29289 17.2929Z" fill="#F7AF03"/>
</svg>
