<svg width="35" height="35" viewBox="0 0 35 35" fill="none" xmlns="http://www.w3.org/2000/svg">
<path fill-rule="evenodd" clip-rule="evenodd" d="M0 0H35V35H0V0ZM4.64645 26.3536C4.45118 26.1583 4.45118 25.8417 4.64645 25.6464L7.82843 22.4645C8.02369 22.2692 8.34027 22.2692 8.53553 22.4645C8.7308 22.6597 8.7308 22.9763 8.53553 23.1716L6.20711 25.5H28.7929L26.4645 23.1716C26.2692 22.9763 26.2692 22.6597 26.4645 22.4645C26.6597 22.2692 26.9763 22.2692 27.1716 22.4645L30.3536 25.6464C30.5488 25.8417 30.5488 26.1583 30.3536 26.3536L27.1716 29.5355C26.9763 29.7308 26.6597 29.7308 26.4645 29.5355C26.2692 29.3403 26.2692 29.0237 26.4645 28.8284L28.7929 26.5H6.20711L8.53553 28.8284C8.7308 29.0237 8.7308 29.3403 8.53553 29.5355C8.34027 29.7308 8.02369 29.7308 7.82843 29.5355L4.64645 26.3536ZM17 15.493C16.1061 15.493 15.342 15.2003 14.7076 14.615C14.0733 14.0297 13.7561 13.3247 13.7561 12.5C13.7561 11.6753 14.0733 10.9703 14.7076 10.385C15.342 9.79969 16.1061 9.50704 17 9.50704C17.8939 9.50704 18.658 9.79969 19.2924 10.385C19.9267 10.9703 20.2439 11.6753 20.2439 12.5C20.2439 13.3247 19.9267 14.0297 19.2924 14.615C18.658 15.2003 17.8939 15.493 17 15.493ZM25.8234 14.7347L23.8771 13.338C23.9059 13.1518 23.9203 12.8725 23.9203 12.5C23.9203 12.1275 23.9059 11.8482 23.8771 11.662L25.8234 10.2653C26.0252 10.1322 26.0541 9.94601 25.9099 9.70657L24.0501 6.75352C23.9347 6.56729 23.7473 6.51408 23.4878 6.5939L21.1954 7.43192C20.7052 7.08607 20.1862 6.80673 19.6384 6.5939L19.2924 4.35915C19.2347 4.11972 19.0905 4 18.8598 4H15.1402C14.9095 4 14.7653 4.11972 14.7076 4.35915L14.3616 6.5939C13.9291 6.75352 13.4101 7.03286 12.8046 7.43192L10.5122 6.5939C10.2527 6.51408 10.0653 6.56729 9.94994 6.75352L8.09011 9.70657C7.94594 9.94601 7.97477 10.1322 8.17661 10.2653L10.1229 11.662C10.0941 11.8482 10.0797 12.1275 10.0797 12.5C10.0797 12.8725 10.0941 13.1518 10.1229 13.338L8.17661 14.7347C7.97477 14.8678 7.94594 15.054 8.09011 15.2934L9.94994 18.2465C10.0653 18.4327 10.2527 18.4859 10.5122 18.4061L12.8046 17.5681C13.2948 17.9139 13.8138 18.1933 14.3616 18.4061L14.7076 20.6408C14.7653 20.8803 14.9095 21 15.1402 21H18.8598C19.0905 21 19.2347 20.8803 19.2924 20.6408L19.6384 18.4061C20.0709 18.2465 20.5899 17.9671 21.1954 17.5681L23.4878 18.4061C23.7473 18.4859 23.9347 18.4327 24.0501 18.2465L25.9099 15.2934C26.0541 15.054 26.0252 14.8678 25.8234 14.7347Z" fill="#F7AF03"/>
</svg>
