<svg width="35" height="36" viewBox="0 0 35 36" fill="none" xmlns="http://www.w3.org/2000/svg">
<path fill-rule="evenodd" clip-rule="evenodd" d="M35 0.272461H0V35.2725H35V0.272461ZM15.8612 21.7643C16.3352 22.2018 16.8821 22.4206 17.5018 22.4206C18.1581 22.4206 18.705 22.2018 19.1425 21.7643L25.7597 11.8659L15.8612 18.4284C15.3873 18.9023 15.1503 19.4674 15.1503 20.1237C15.1503 20.7435 15.3873 21.2903 15.8612 21.7643ZM28.6034 16.8424C28.2388 15.6028 27.8013 14.582 27.2909 13.7799L25.869 15.9127C26.5253 17.2252 26.8534 18.6289 26.8534 20.1237C26.8534 21.8008 26.4341 23.3502 25.5956 24.7721H9.40809C8.56955 23.3502 8.15028 21.8008 8.15028 20.1237C8.15028 17.5351 9.06174 15.3294 10.8847 13.5065C12.744 11.6836 14.9498 10.7721 17.5018 10.7721C18.9602 10.7721 20.3456 11.1002 21.6581 11.7565L23.8456 10.3346C23.0435 9.8242 22.0227 9.3867 20.7831 9.02212C19.58 8.65754 18.5044 8.47525 17.5565 8.47525C14.3117 8.47525 11.5409 9.62368 9.24403 11.9206C6.98361 14.181 5.85341 16.9153 5.85341 20.1237C5.85341 22.2747 6.36382 24.207 7.38466 25.9206C7.85861 26.7226 8.53309 27.1237 9.40809 27.1237H25.5956C26.4706 27.1237 27.1451 26.7226 27.619 25.9206C28.6399 24.207 29.1503 22.2747 29.1503 20.1237C29.1503 19.1758 28.968 18.082 28.6034 16.8424Z" fill="#F7AF03"/>
</svg>
