<svg width="35" height="35" viewBox="0 0 35 35" fill="none" xmlns="http://www.w3.org/2000/svg">
<path fill-rule="evenodd" clip-rule="evenodd" d="M35 0H0V35H35V0ZM12 5C12 3.89543 11.1046 3 10 3H4C2.89543 3 2 3.89543 2 5V11C2 12.1046 2.89543 13 4 13H9V17C9 18.1046 9.89543 19 11 19H16V24C16 25.1046 16.8954 26 18 26H23V30C23 31.1046 23.8954 32 25 32H31C32.1046 32 33 31.1046 33 30V24C33 22.8954 32.1046 22 31 22H26V18C26 16.8954 25.1046 16 24 16H19V11C19 9.89543 18.1046 9 17 9H12V5ZM7 10C8.10457 10 9 9.10457 9 8C9 6.89543 8.10457 6 7 6C5.89543 6 5 6.89543 5 8C5 9.10457 5.89543 10 7 10ZM21 23C22.1046 23 23 22.1046 23 21C23 19.8954 22.1046 19 21 19C19.8954 19 19 19.8954 19 21C19 22.1046 19.8954 23 21 23ZM16 14C16 15.1046 15.1046 16 14 16C12.8954 16 12 15.1046 12 14C12 12.8954 12.8954 12 14 12C15.1046 12 16 12.8954 16 14ZM28 29C29.1046 29 30 28.1046 30 27C30 25.8954 29.1046 25 28 25C26.8954 25 26 25.8954 26 27C26 28.1046 26.8954 29 28 29Z" fill="#F7AF03"/>
</svg>
