<svg width="27" height="28" viewBox="0 0 27 28" fill="none" xmlns="http://www.w3.org/2000/svg">
<path d="M14.1875 7.3125V14.3125L20.1875 17.875L19.1875 19.5625L12.1875 15.3125V7.3125H14.1875ZM5.9375 21.5625C8.0625 23.6458 10.5833 24.6875 13.5 24.6875C16.4167 24.6875 18.9167 23.6458 21 21.5625C23.125 19.4375 24.1875 16.9167 24.1875 14C24.1875 11.0833 23.125 8.58333 21 6.5C18.9167 4.375 16.4167 3.3125 13.5 3.3125C10.5833 3.3125 8.0625 4.375 5.9375 6.5C3.85417 8.58333 2.8125 11.0833 2.8125 14C2.8125 16.9167 3.85417 19.4375 5.9375 21.5625ZM4.0625 4.625C6.6875 2 9.83333 0.6875 13.5 0.6875C17.1667 0.6875 20.2917 2 22.875 4.625C25.5 7.20833 26.8125 10.3333 26.8125 14C26.8125 17.6667 25.5 20.8125 22.875 23.4375C20.2917 26.0208 17.1667 27.3125 13.5 27.3125C9.83333 27.3125 6.6875 26.0208 4.0625 23.4375C1.47917 20.8125 0.1875 17.6667 0.1875 14C0.1875 10.3333 1.47917 7.20833 4.0625 4.625Z" fill="#FBB901"/>
</svg>
