<svg width="27" height="25" viewBox="0 0 27 25" fill="none" xmlns="http://www.w3.org/2000/svg">
<path d="M19.5 10.875C19.2083 11.125 18.875 11.25 18.5 11.25C18.125 11.25 17.8125 11.125 17.5625 10.875L11.625 4.9375L2.1875 14.3125L1.3125 13.5C0.8125 12.9583 0.458333 12.3542 0.25 11.6875C0.0833333 10.9792 0.0833333 10.2917 0.25 9.625C0.458333 8.95833 0.8125 8.35417 1.3125 7.8125L7 2.1875C7.5 1.64583 8.08333 1.29167 8.75 1.125C9.45833 0.958333 10.1458 0.958333 10.8125 1.125C11.5208 1.29167 12.125 1.64583 12.625 2.1875L19.5 9C19.75 9.25 19.875 9.5625 19.875 9.9375C19.875 10.3125 19.75 10.625 19.5 10.875ZM20.4375 8.0625C20.9375 8.5625 21.1875 9.1875 21.1875 9.9375C21.1875 10.6875 20.9375 11.3125 20.4375 11.8125C19.9792 12.2292 19.5417 12.5 19.125 12.625C18.7083 12.7083 18.3125 12.7083 17.9375 12.625C17.6042 12.5 17.3125 12.3542 17.0625 12.1875C16.8542 12.0208 16.7083 11.8958 16.625 11.8125L11.625 6.8125L4.1875 14.25C3.9375 14.5 3.8125 14.8125 3.8125 15.1875C3.8125 15.5625 3.9375 15.875 4.1875 16.125C4.4375 16.375 4.75 16.5 5.125 16.5C5.5 16.5 5.8125 16.375 6.0625 16.125L12.25 9.9375L13.1875 10.9375L7.0625 17.0625C6.77083 17.3125 6.625 17.625 6.625 18C6.625 18.375 6.77083 18.6875 7.0625 18.9375C7.3125 19.1875 7.60417 19.3125 7.9375 19.3125C8.3125 19.3125 8.64583 19.1875 8.9375 18.9375L15.0625 12.8125L16.0625 13.75L9.875 19.875C9.625 20.1667 9.5 20.5 9.5 20.875C9.5 21.2083 9.625 21.5 9.875 21.75C10.125 22.0417 10.4375 22.1875 10.8125 22.1875C11.1875 22.1875 11.5 22.0417 11.75 21.75L17.9375 15.625L18.875 16.5625L12.6875 22.75C12.4375 23 12.3125 23.3125 12.3125 23.6875C12.3125 24.0208 12.4375 24.3333 12.6875 24.625C12.9375 24.875 13.25 25 13.625 25C14 25 14.3125 24.875 14.5625 24.625L25.6875 13.5C26.1875 12.9583 26.5208 12.3542 26.6875 11.6875C26.8958 10.9792 26.8958 10.2917 26.6875 9.625C26.5208 8.95833 26.1875 8.35417 25.6875 7.8125L20 2.1875C19.5 1.6875 18.9167 1.35417 18.25 1.1875C17.5833 0.979167 16.9167 0.958333 16.25 1.125C15.5833 1.29167 14.9792 1.60417 14.4375 2.0625L20.4375 8.0625Z" fill="#FBB901"/>
</svg>
