<svg width="27" height="28" viewBox="0 0 27 28" fill="none" xmlns="http://www.w3.org/2000/svg">
<path d="M6.8125 16.6875H20.1875C19.6458 18.2708 18.7708 19.5625 17.5625 20.5625C16.3542 21.5208 15 22 13.5 22C12 22 10.6458 21.5208 9.4375 20.5625C8.22917 19.5625 7.35417 18.2708 6.8125 16.6875ZM5.9375 21.5625C8.0625 23.6458 10.5833 24.6875 13.5 24.6875C16.4167 24.6875 18.9167 23.6458 21 21.5625C23.125 19.4375 24.1875 16.9167 24.1875 14C24.1875 11.0833 23.125 8.58333 21 6.5C18.9167 4.375 16.4167 3.3125 13.5 3.3125C10.5833 3.3125 8.0625 4.375 5.9375 6.5C3.85417 8.58333 2.8125 11.0833 2.8125 14C2.8125 16.9167 3.85417 19.4375 5.9375 21.5625ZM4.0625 4.625C6.6875 2 9.83333 0.6875 13.5 0.6875C17.1667 0.6875 20.2917 2 22.875 4.625C25.5 7.20833 26.8125 10.3333 26.8125 14C26.8125 17.6667 25.5 20.8125 22.875 23.4375C20.2917 26.0208 17.1667 27.3125 13.5 27.3125C9.83333 27.3125 6.6875 26.0208 4.0625 23.4375C1.47917 20.8125 0.1875 17.6667 0.1875 14C0.1875 10.3333 1.47917 7.20833 4.0625 4.625ZM7.375 12.125C7 11.7083 6.8125 11.2292 6.8125 10.6875C6.8125 10.1458 7 9.6875 7.375 9.3125C7.79167 8.89583 8.27083 8.6875 8.8125 8.6875C9.35417 8.6875 9.8125 8.89583 10.1875 9.3125C10.6042 9.6875 10.8125 10.1458 10.8125 10.6875C10.8125 11.2292 10.6042 11.7083 10.1875 12.125C9.8125 12.5 9.35417 12.6875 8.8125 12.6875C8.27083 12.6875 7.79167 12.5 7.375 12.125ZM16.75 12.125C16.375 11.7083 16.1875 11.2292 16.1875 10.6875C16.1875 10.1458 16.375 9.6875 16.75 9.3125C17.1667 8.89583 17.6458 8.6875 18.1875 8.6875C18.7292 8.6875 19.1875 8.89583 19.5625 9.3125C19.9792 9.6875 20.1875 10.1458 20.1875 10.6875C20.1875 11.2292 19.9792 11.7083 19.5625 12.125C19.1875 12.5 18.7292 12.6875 18.1875 12.6875C17.6458 12.6875 17.1667 12.5 16.75 12.125Z" fill="#FBB901"/>
</svg>
