<svg width="25" height="28" viewBox="0 0 25 28" fill="none" xmlns="http://www.w3.org/2000/svg">
<path d="M21.8125 3.3125H20.5V0.6875H17.8125V3.3125H7.1875V0.6875H4.5V3.3125H3.1875C2.4375 3.3125 1.79167 3.58333 1.25 4.125C0.75 4.625 0.5 5.25 0.5 6V24.6875C0.5 25.3958 0.75 26.0208 1.25 26.5625C1.79167 27.0625 2.4375 27.3125 3.1875 27.3125H21.8125C22.5625 27.3125 23.1875 27.0625 23.6875 26.5625C24.2292 26.0208 24.5 25.3958 24.5 24.6875V6C24.5 5.25 24.2292 4.625 23.6875 4.125C23.1875 3.58333 22.5625 3.3125 21.8125 3.3125ZM21.8125 24.6875H3.1875V11.3125H21.8125V24.6875ZM8.5 16.6875H5.8125V14H8.5V16.6875ZM13.8125 16.6875H11.1875V14H13.8125V16.6875ZM19.1875 16.6875H16.5V14H19.1875V16.6875ZM8.5 22H5.8125V19.3125H8.5V22ZM13.8125 22H11.1875V19.3125H13.8125V22ZM19.1875 22H16.5V19.3125H19.1875V22Z" fill="#FBB901"/>
</svg>
