<svg width="18" height="15" viewBox="0 0 18 15" fill="none" xmlns="http://www.w3.org/2000/svg">
<path d="M14.8203 4.5H14V0.320312H5.67969V12.4297V13.6797H17.3203V7C17.3203 6.53125 17.2031 6.11458 16.9688 5.75C16.7604 5.35938 16.4609 5.0599 16.0703 4.85156C15.7057 4.61719 15.2891 4.5 14.8203 4.5ZM7.32031 2H12.3203V4.5H7.32031V2ZM10.6797 11.1797H7.32031V7H10.6797V11.1797ZM12.3203 11.1797C12.112 11.1797 11.9167 11.1016 11.7344 10.9453C11.5781 10.763 11.5 10.5547 11.5 10.3203C11.5 10.112 11.5781 9.92969 11.7344 9.77344C11.9167 9.59115 12.112 9.5 12.3203 9.5C12.5547 9.5 12.75 9.59115 12.9062 9.77344C13.0885 9.92969 13.1797 10.112 13.1797 10.3203C13.1797 10.5547 13.0885 10.763 12.9062 10.9453C12.75 11.1016 12.5547 11.1797 12.3203 11.1797ZM12.3203 8.67969C12.112 8.67969 11.9167 8.60156 11.7344 8.44531C11.5781 8.26302 11.5 8.05469 11.5 7.82031C11.5 7.61198 11.5781 7.42969 11.7344 7.27344C11.9167 7.09115 12.112 7 12.3203 7C12.5547 7 12.75 7.09115 12.9062 7.27344C13.0885 7.42969 13.1797 7.61198 13.1797 7.82031C13.1797 8.05469 13.0885 8.26302 12.9062 8.44531C12.75 8.60156 12.5547 8.67969 12.3203 8.67969ZM14.8203 11.1797C14.612 11.1797 14.4167 11.1016 14.2344 10.9453C14.0781 10.763 14 10.5547 14 10.3203C14 10.112 14.0781 9.92969 14.2344 9.77344C14.4167 9.59115 14.612 9.5 14.8203 9.5C15.0547 9.5 15.25 9.59115 15.4062 9.77344C15.5885 9.92969 15.6797 10.112 15.6797 10.3203C15.6797 10.5547 15.5885 10.763 15.4062 10.9453C15.25 11.1016 15.0547 11.1797 14.8203 11.1797ZM14.8203 8.67969C14.612 8.67969 14.4167 8.60156 14.2344 8.44531C14.0781 8.26302 14 8.05469 14 7.82031C14 7.61198 14.0781 7.42969 14.2344 7.27344C14.4167 7.09115 14.612 7 14.8203 7C15.0547 7 15.25 7.09115 15.4062 7.27344C15.5885 7.42969 15.6797 7.61198 15.6797 7.82031C15.6797 8.05469 15.5885 8.26302 15.4062 8.44531C15.25 8.60156 15.0547 8.67969 14.8203 8.67969ZM2.75 3.67969C2.17708 3.67969 1.68229 3.88802 1.26562 4.30469C0.875 4.69531 0.679688 5.17708 0.679688 5.75V12.4297C0.679688 13.0026 0.875 13.4974 1.26562 13.9141C1.68229 14.3047 2.17708 14.5 2.75 14.5C3.32292 14.5 3.80469 14.3047 4.19531 13.9141C4.61198 13.4974 4.82031 13.0026 4.82031 12.4297V5.75C4.82031 5.17708 4.61198 4.69531 4.19531 4.30469C3.80469 3.88802 3.32292 3.67969 2.75 3.67969Z" fill="#F7AF03"/>
</svg>
