<svg width="12" height="20" viewBox="0 0 12 20" fill="none" xmlns="http://www.w3.org/2000/svg">
<path d="M10.1797 15.8203V4.17969H1.82031V15.8203H10.1797ZM10.1797 0.859375C10.6224 0.859375 11 1.02865 11.3125 1.36719C11.651 1.67969 11.8203 2.05729 11.8203 2.5V17.5C11.8203 17.9427 11.651 18.3333 11.3125 18.6719C11 19.0104 10.6224 19.1797 10.1797 19.1797H1.82031C1.3776 19.1797 0.986979 19.0104 0.648438 18.6719C0.335938 18.3333 0.179688 17.9427 0.179688 17.5V2.5C0.179688 2.05729 0.335938 1.66667 0.648438 1.32812C0.986979 0.989583 1.3776 0.820312 1.82031 0.820312L10.1797 0.859375Z" fill="#F7AF03"/>
</svg>
