<svg width="18" height="16" viewBox="0 0 18 16" fill="none" xmlns="http://www.w3.org/2000/svg">
<path d="M16.5 8.19531C16.5 7.04948 16.2917 6.00781 15.875 5.07031C15.4844 4.13281 14.9375 3.32552 14.2344 2.64844C13.5312 1.94531 12.724 1.41146 11.8125 1.04688C10.9271 0.682292 9.98958 0.5 9 0.5C8.01042 0.5 7.07292 0.682292 6.1875 1.04688C5.30208 1.41146 4.49479 1.93229 3.76562 2.60938C3.0625 3.28646 2.5026 4.10677 2.08594 5.07031C1.69531 6.00781 1.5 7.0625 1.5 8.23438C1.23958 8.36458 1.03125 8.5599 0.875 8.82031C0.744792 9.08073 0.679688 9.36719 0.679688 9.67969V11.3203C0.679688 11.7891 0.835938 12.1927 1.14844 12.5312C1.48698 12.8438 1.8776 13 2.32031 13H3.17969V7.92188C3.17969 7.11458 3.32292 6.35938 3.60938 5.65625C3.92188 4.95312 4.33854 4.34115 4.85938 3.82031C5.40625 3.27344 6.03125 2.85677 6.73438 2.57031C7.4375 2.25781 8.19271 2.10156 9 2.10156C9.80729 2.10156 10.5625 2.25781 11.2656 2.57031C11.9688 2.85677 12.5807 3.27344 13.1016 3.82031C13.6484 4.34115 14.0651 4.95312 14.3516 5.65625C14.6641 6.35938 14.8203 7.11458 14.8203 7.92188V13.8203H8.17969V15.5H14.8203C15.2891 15.5 15.6797 15.3438 15.9922 15.0312C16.3307 14.6927 16.5 14.2891 16.5 13.8203V12.8047C16.7344 12.6745 16.9297 12.4922 17.0859 12.2578C17.2422 12.0234 17.3203 11.75 17.3203 11.4375V9.52344C17.3203 9.23698 17.2422 8.97656 17.0859 8.74219C16.9297 8.50781 16.7344 8.32552 16.5 8.19531ZM5.67969 8.82031C5.67969 8.58594 5.75781 8.39062 5.91406 8.23438C6.07031 8.07812 6.26562 8 6.5 8C6.73438 8 6.92969 8.07812 7.08594 8.23438C7.24219 8.39062 7.32031 8.58594 7.32031 8.82031C7.32031 9.05469 7.24219 9.26302 7.08594 9.44531C6.92969 9.60156 6.73438 9.67969 6.5 9.67969C6.26562 9.67969 6.07031 9.60156 5.91406 9.44531C5.75781 9.26302 5.67969 9.05469 5.67969 8.82031ZM10.6797 8.82031C10.6797 8.58594 10.7578 8.39062 10.9141 8.23438C11.0703 8.07812 11.2656 8 11.5 8C11.7344 8 11.9297 8.07812 12.0859 8.23438C12.2422 8.39062 12.3203 8.58594 12.3203 8.82031C12.3203 9.05469 12.2422 9.26302 12.0859 9.44531C11.9297 9.60156 11.7344 9.67969 11.5 9.67969C11.2656 9.67969 11.0703 9.60156 10.9141 9.44531C10.7578 9.26302 10.6797 9.05469 10.6797 8.82031ZM14 7.17969C13.8698 6.39844 13.5703 5.69531 13.1016 5.07031C12.6328 4.41927 12.0469 3.91146 11.3438 3.54688C10.6406 3.18229 9.8724 3 9.03906 3C8.41406 3 7.78906 3.13021 7.16406 3.39062C6.53906 3.625 5.97917 3.97656 5.48438 4.44531C4.98958 4.91406 4.59896 5.48698 4.3125 6.16406C4.05208 6.8151 3.94792 7.55729 4 8.39062C5.04167 7.94792 5.92708 7.29688 6.65625 6.4375C7.38542 5.57812 7.85417 4.58854 8.0625 3.46875C8.42708 4.19792 8.90885 4.84896 9.50781 5.42188C10.1068 5.96875 10.7839 6.39844 11.5391 6.71094C12.3203 7.02344 13.1406 7.17969 14 7.17969Z" fill="#F7AF03"/>
</svg>
