<svg width="20" height="14" viewBox="0 0 20 14" fill="none" xmlns="http://www.w3.org/2000/svg">
<path d="M14.1016 12.0781C14.3359 12.3125 14.6354 12.4297 15 12.4297C15.3646 12.4297 15.6641 12.3125 15.8984 12.0781C16.1328 11.8177 16.25 11.5182 16.25 11.1797C16.25 10.8411 16.1328 10.5547 15.8984 10.3203C15.6641 10.0599 15.3646 9.92969 15 9.92969C14.6354 9.92969 14.3359 10.0599 14.1016 10.3203C13.8672 10.5547 13.75 10.8411 13.75 11.1797C13.75 11.5182 13.8672 11.8177 14.1016 12.0781ZM16.25 4.92969H14.1797V7H17.8906L16.25 4.92969ZM4.10156 12.0781C4.33594 12.3125 4.63542 12.4297 5 12.4297C5.36458 12.4297 5.66406 12.3125 5.89844 12.0781C6.13281 11.8177 6.25 11.5182 6.25 11.1797C6.25 10.8411 6.13281 10.5547 5.89844 10.3203C5.66406 10.0599 5.36458 9.92969 5 9.92969C4.63542 9.92969 4.33594 10.0599 4.10156 10.3203C3.86719 10.5547 3.75 10.8411 3.75 11.1797C3.75 11.5182 3.86719 11.8177 4.10156 12.0781ZM16.6797 3.67969L19.1797 7V11.1797H17.5C17.5 11.8568 17.2526 12.4427 16.7578 12.9375C16.263 13.4323 15.6771 13.6797 15 13.6797C14.3229 13.6797 13.737 13.4323 13.2422 12.9375C12.7474 12.4427 12.5 11.8568 12.5 11.1797H7.5C7.5 11.8568 7.2526 12.4427 6.75781 12.9375C6.26302 13.4323 5.67708 13.6797 5 13.6797C4.32292 13.6797 3.73698 13.4323 3.24219 12.9375C2.7474 12.4427 2.5 11.8568 2.5 11.1797H0.820312V2C0.820312 1.55729 0.989583 1.16667 1.32812 0.828125C1.66667 0.489583 2.05729 0.320312 2.5 0.320312H14.1797V3.67969H16.6797Z" fill="#F7AF03"/>
</svg>
