<svg width="24" height="24" viewBox="0 0 24 24" fill="none" xmlns="http://www.w3.org/2000/svg">
<path d="M12 0C15.125 0 17.8281 1.0625 20.1094 3.1875C22.4219 5.28125 23.7031 7.875 23.9531 10.9688H22.4531C22.2969 9.125 21.6719 7.45312 20.5781 5.95312C19.5156 4.45312 18.1562 3.3125 16.5 2.53125L15.1406 3.84375L11.3438 0.046875L12 0ZM16.5469 11.8125C16.5469 10.0312 15.8125 9.14062 14.3438 9.14062H13.4062V14.9062H14.2969C15.4219 14.9062 16.1406 14.375 16.4531 13.3125C16.5156 13.0938 16.5469 12.7188 16.5469 12.1875V11.8125ZM14.3438 8.01562C16 8.01562 17.125 8.75 17.7188 10.2188C17.875 10.5938 17.9531 11.125 17.9531 11.8125V12.1875C17.9531 13.375 17.625 14.2969 16.9688 14.9531C16.2812 15.6406 15.3906 15.9844 14.2969 15.9844H12V8.01562H14.3438ZM9.70312 11.9062C10.5781 12.25 11.0156 12.8594 11.0156 13.7344C11.0156 14.0469 10.9375 14.3594 10.7812 14.6719C10.5938 15.0469 10.4219 15.2969 10.2656 15.4219C9.79688 15.7969 9.17188 15.9844 8.39062 15.9844C7.64062 15.9844 7.03125 15.7969 6.5625 15.4219C6.09375 15.0469 5.85938 14.5 5.85938 13.7812H7.125C7.125 14.125 7.23438 14.4062 7.45312 14.625C7.70312 14.8438 8.01562 14.9531 8.39062 14.9531C9.26562 14.9531 9.70312 14.5312 9.70312 13.6875C9.70312 12.8438 9.21875 12.4219 8.25 12.4219H7.5V11.3906H8.25C9.15625 11.3906 9.60938 11 9.60938 10.2188C9.60938 9.4375 9.20312 9.04688 8.39062 9.04688C7.60938 9.04688 7.21875 9.40625 7.21875 10.125H5.90625C5.90625 9.59375 6.14062 9.09375 6.60938 8.625C7.10938 8.21875 7.70312 8.01562 8.39062 8.01562C9.14062 8.01562 9.73438 8.20312 10.1719 8.57812C10.6406 8.95312 10.875 9.5 10.875 10.2188C10.875 11 10.4844 11.5625 9.70312 11.9062ZM7.5 21.4688L8.85938 20.1562L12.6562 23.9531L12 24C8.875 24 6.15625 22.9375 3.84375 20.8125C1.5625 18.6875 0.296875 16.0781 0.046875 12.9844H1.54688C1.70312 14.6406 2.35938 16.2969 3.51562 17.9531C4.67188 19.6094 6 20.7812 7.5 21.4688Z" fill="#F7AF03"/>
</svg>
