<svg width="36" height="38" viewBox="0 0 36 38" fill="none" xmlns="http://www.w3.org/2000/svg">
<path d="M2.63338 6.81781C2.12669 6.81781 1.67352 6.69211 1.27387 6.44071C0.881363 6.1893 0.570923 5.8553 0.342554 5.43869C0.114185 5.0149 0 4.54801 0 4.03802C0 3.53522 0.121321 3.07551 0.363964 2.6589C0.613742 2.23511 0.94916 1.90111 1.37022 1.65689C1.79127 1.40549 2.26585 1.27979 2.79396 1.27979C3.32206 1.27979 3.79664 1.40189 4.21769 1.64611C4.63875 1.88315 4.9706 2.20997 5.21324 2.62658C5.46302 3.04319 5.58791 3.51367 5.58791 4.03802V6.68851H4.58166V4.71681L4.94562 4.43667C4.94562 4.88201 4.84571 5.28426 4.64589 5.6434C4.4532 6.00255 4.18201 6.28986 3.83232 6.50535C3.48977 6.71365 3.09012 6.81781 2.63338 6.81781ZM2.79396 5.80502C3.12224 5.80502 3.4184 5.726 3.68245 5.56798C3.94651 5.40996 4.15347 5.19806 4.30333 4.93229C4.4532 4.65934 4.52813 4.36484 4.52813 4.0488C4.52813 3.72557 4.4532 3.43107 4.30333 3.1653C4.15347 2.89953 3.94651 2.68764 3.68245 2.52961C3.4184 2.3644 3.12224 2.2818 2.79396 2.2818C2.46567 2.2818 2.16951 2.3644 1.90546 2.52961C1.64854 2.68764 1.44158 2.89953 1.28458 3.1653C1.13471 3.43107 1.05978 3.72557 1.05978 4.0488C1.05978 4.36484 1.13471 4.65934 1.28458 4.93229C1.44158 5.19806 1.64854 5.40996 1.90546 5.56798C2.16951 5.726 2.46567 5.80502 2.79396 5.80502Z" fill="#070707"/>
<path d="M18.2531 6.81772H17.1934V3.67161C17.1934 3.24063 17.2719 2.85635 17.4289 2.51875C17.593 2.18116 17.8285 1.91539 18.1354 1.72145C18.4494 1.52751 18.8348 1.43054 19.2915 1.43054C19.4628 1.43054 19.6269 1.4485 19.7839 1.48441C19.9481 1.51315 20.0979 1.55983 20.2335 1.62448V2.68037C20.1051 2.60136 19.9659 2.54389 19.816 2.50798C19.6733 2.47206 19.5306 2.45411 19.3878 2.45411C19.0382 2.45411 18.7598 2.56903 18.5529 2.79889C18.353 3.02156 18.2531 3.32683 18.2531 3.71471V6.81772Z" fill="#070707"/>
<path d="M34.0597 6.78785C33.6315 6.78785 33.2675 6.70165 32.9678 6.52926C32.6681 6.35687 32.4397 6.11984 32.2827 5.81816C32.1328 5.50929 32.0579 5.15374 32.0579 4.75149V0H33.1177V4.71917C33.1177 5.06395 33.2104 5.33331 33.396 5.52725C33.5887 5.72119 33.842 5.81816 34.156 5.81816C34.3273 5.81816 34.4986 5.78942 34.6699 5.73196C34.8483 5.6745 35.0017 5.59908 35.1302 5.5057V6.48617C34.9946 6.57236 34.8304 6.64419 34.6378 6.70165C34.4451 6.75912 34.2524 6.78785 34.0597 6.78785ZM35.1302 2.29494H31.0195V1.36834H35.1302V2.29494Z" fill="#070707"/>
<path d="M2.92306 22.0528H1.86328V18.9067C1.86328 18.4757 1.94178 18.0915 2.09879 17.7539C2.26293 17.4163 2.49843 17.1505 2.8053 16.9566C3.11931 16.7626 3.50469 16.6656 3.96142 16.6656C4.1327 16.6656 4.29684 16.6836 4.45385 16.7195C4.61799 16.7483 4.76785 16.7949 4.90345 16.8596V17.9155C4.77499 17.8365 4.63583 17.779 4.48596 17.7431C4.34323 17.7072 4.2005 17.6892 4.05777 17.6892C3.70808 17.6892 3.42975 17.8041 3.22279 18.034C3.02297 18.2567 2.92306 18.5619 2.92306 18.9498V22.0528Z" fill="#070707"/>
<path d="M18.2109 22.1154C17.6828 22.1154 17.2082 21.9897 16.7872 21.7383C16.3661 21.4869 16.0307 21.1529 15.7809 20.7363C15.5311 20.3125 15.4062 19.8456 15.4062 19.3356C15.4062 18.8256 15.5311 18.3623 15.7809 17.9457C16.0307 17.5291 16.3661 17.1987 16.7872 16.9545C17.2082 16.7031 17.6828 16.5774 18.2109 16.5774C18.739 16.5774 19.2136 16.7031 19.6346 16.9545C20.0557 17.1987 20.3876 17.5327 20.6302 17.9565C20.8728 18.3731 20.9942 18.8328 20.9942 19.3356C20.9942 19.8456 20.8728 20.3125 20.6302 20.7363C20.3876 21.1529 20.0521 21.4869 19.6239 21.7383C19.2029 21.9897 18.7319 22.1154 18.2109 22.1154ZM18.2109 21.1026C18.5392 21.1026 18.8318 21.0236 19.0887 20.8656C19.3528 20.7076 19.5597 20.4957 19.7096 20.2299C19.8595 19.957 19.9344 19.6625 19.9344 19.3464C19.9344 19.0232 19.8595 18.7287 19.7096 18.4629C19.5597 18.1971 19.3528 17.9852 19.0887 17.8272C18.8318 17.662 18.5392 17.5794 18.2109 17.5794C17.8826 17.5794 17.5865 17.662 17.3224 17.8272C17.0655 17.9852 16.8585 18.1971 16.7015 18.4629C16.5445 18.7287 16.466 19.0232 16.466 19.3464C16.466 19.6625 16.5445 19.957 16.7015 20.2299C16.8585 20.4957 17.0655 20.7076 17.3224 20.8656C17.5865 21.0236 17.8826 21.1026 18.2109 21.1026Z" fill="#070707"/>
<path d="M33.2061 22.0054C32.678 22.0054 32.2034 21.8797 31.7823 21.6283C31.3613 21.3769 31.0258 21.0429 30.7761 20.6263C30.5334 20.2097 30.4121 19.75 30.4121 19.2472C30.4121 18.7085 30.5299 18.2308 30.7654 17.8142C31.0009 17.3976 31.3256 17.0708 31.7395 16.8338C32.1534 16.5895 32.6244 16.4674 33.1525 16.4674C33.5736 16.4674 33.959 16.568 34.3087 16.7691C34.6655 16.963 34.9509 17.2252 35.165 17.5556C35.3791 17.886 35.4862 18.2452 35.4862 18.6331L34.9295 18.3529L34.9402 14.1725H36V19.2472C36 19.7644 35.8751 20.2349 35.6253 20.6587C35.3827 21.0753 35.0509 21.4057 34.6298 21.6499C34.2087 21.8869 33.7342 22.0054 33.2061 22.0054ZM33.2061 21.0034C33.5343 21.0034 33.8305 20.9244 34.0946 20.7664C34.3586 20.6012 34.5656 20.3857 34.7154 20.1199C34.8653 19.8542 34.9402 19.5597 34.9402 19.2364C34.9402 18.9204 34.8653 18.6295 34.7154 18.3637C34.5656 18.0908 34.3586 17.8753 34.0946 17.7173C33.8305 17.5592 33.5343 17.4802 33.2061 17.4802C32.8778 17.4802 32.5816 17.5592 32.3176 17.7173C32.0606 17.8753 31.8537 18.0908 31.6967 18.3637C31.5468 18.6295 31.4719 18.9204 31.4719 19.2364C31.4719 19.5597 31.5468 19.8542 31.6967 20.1199C31.8537 20.3857 32.0606 20.6012 32.3176 20.7664C32.5816 20.9244 32.8778 21.0034 33.2061 21.0034Z" fill="#070707"/>
<path d="M2.51112 31.8079H3.5709V37.0873H2.51112V31.8079ZM3.03566 30.7628C2.91434 30.7628 2.80015 30.734 2.6931 30.6766C2.58605 30.6119 2.50042 30.5257 2.43619 30.418C2.37196 30.3102 2.33984 30.1917 2.33984 30.0624C2.33984 29.9331 2.37196 29.8146 2.43619 29.7069C2.50042 29.5991 2.58605 29.5129 2.6931 29.4483C2.80015 29.3836 2.91434 29.3513 3.03566 29.3513C3.16411 29.3513 3.2783 29.3836 3.37821 29.4483C3.48526 29.5129 3.56733 29.5991 3.62442 29.7069C3.68865 29.8146 3.72076 29.9331 3.72076 30.0624C3.72076 30.1917 3.68865 30.3102 3.62442 30.418C3.56733 30.5257 3.48526 30.6119 3.37821 30.6766C3.2783 30.734 3.16411 30.7628 3.03566 30.7628Z" fill="#070707"/>
<path d="M19.1945 37.2274C18.7663 37.2274 18.4023 37.1412 18.1026 36.9688C17.8028 36.7964 17.5745 36.5594 17.4175 36.2577C17.2676 35.9489 17.1927 35.5933 17.1927 35.1911V30.4396H18.2524V35.1587C18.2524 35.5035 18.3452 35.7729 18.5308 35.9668C18.7235 36.1608 18.9768 36.2577 19.2908 36.2577C19.4621 36.2577 19.6334 36.229 19.8046 36.1715C19.9831 36.1141 20.1365 36.0387 20.2649 35.9453V36.9257C20.1293 37.0119 19.9652 37.0838 19.7725 37.1412C19.5798 37.1987 19.3871 37.2274 19.1945 37.2274ZM20.2649 32.7345H16.1543V31.8079H20.2649V32.7345Z" fill="#070707"/>
<path d="M33.4356 37.2058C32.9075 37.2058 32.4329 37.0873 32.0119 36.8502C31.5908 36.606 31.259 36.2756 31.0163 35.859C30.7737 35.4352 30.6523 34.9539 30.6523 34.4152C30.6523 33.9124 30.763 33.4527 30.9842 33.0361C31.2054 32.6123 31.5159 32.2783 31.9155 32.0341C32.3152 31.7827 32.779 31.657 33.3071 31.657C33.8352 31.657 34.2884 31.7755 34.6667 32.0125C35.052 32.2424 35.3482 32.5584 35.5551 32.9607C35.7692 33.3557 35.8763 33.7975 35.8763 34.2859V34.7169H31.4766L31.6693 34.2859C31.6479 34.6594 31.7086 34.9934 31.8513 35.2879C31.994 35.5824 32.201 35.8195 32.4722 35.9991C32.7434 36.1714 33.0609 36.2576 33.4249 36.2576C33.7532 36.2576 34.0493 36.1858 34.3134 36.0421C34.5846 35.8985 34.7987 35.683 34.9557 35.3957L35.7692 35.8159C35.5409 36.2684 35.2233 36.6132 34.8165 36.8502C34.4097 37.0873 33.9494 37.2058 33.4356 37.2058ZM31.7228 34.0273H34.8165C34.8022 33.7472 34.7273 33.4994 34.5917 33.2839C34.4633 33.0684 34.2848 32.9032 34.0565 32.7883C33.8352 32.6734 33.5819 32.6159 33.2964 32.6159C33.0038 32.6159 32.7434 32.677 32.515 32.7991C32.2937 32.9212 32.1153 33.09 31.9797 33.3055C31.8513 33.5209 31.7656 33.7616 31.7228 34.0273Z" fill="#070707"/>
</svg>
